<?xml version="1.0" encoding="utf-8"?>
<!-- Generator: Adobe Illustrator 24.0.0, SVG Export Plug-In . SVG Version: 6.00 Build 0)  -->
<svg version="1.1" id="Слой_1" xmlns="http://www.w3.org/2000/svg" xmlns:xlink="http://www.w3.org/1999/xlink" x="0px" y="0px"
	 width="29px" height="26px" viewBox="0 0 29 26" style="enable-background:new 0 0 29 26;" xml:space="preserve">
<style type="text/css">
	.st0{fill:#2BB075;}
</style>
<g>
	<polygon class="st0" points="27.9,6 23.2,6 23.2,1.2 22.1,1.2 22.1,6 17.4,6 17.4,7.2 22.1,7.2 22.1,12 23.2,12 23.2,7.2 27.9,7.2 
			"/>
	<path class="st0" d="M12.3,15c-0.6-0.5-1.9-1.6-1.9-2.3c0-0.8,0.2-1.2,1.4-2.1c1.2-1,2-2.3,2-3.9c0-1.9-0.8-3.7-2.3-4.3h2.3
		l1.6-1.2c0,0-5.4,0-7.2,0C5,1.2,2,3.7,2,6.6c0,3,2.2,5.4,5.5,5.4c0.2,0,0.4,0,0.7,0c-0.2,0.4-0.4,0.9-0.4,1.4c0,0.8,0.4,1.5,1,2
		c-0.4,0-0.8,0-1.2,0c-4,0-7.1,2.6-7.1,5.3c0,2.7,3.4,4.4,7.4,4.4c4.6,0,7.1-2.7,7.1-5.3C14.8,17.6,14.2,16.3,12.3,15L12.3,15z
		 M8.5,11.2L8.5,11.2c-1.9-0.1-3.6-2.1-3.9-4.6C4.2,4.1,5.5,2.2,7.3,2.2c1.9,0.1,3.6,2.1,3.9,4.6C11.6,9.3,10.3,11.3,8.5,11.2
		L8.5,11.2z M7.7,23.9L7.7,23.9C5,23.9,3,22.1,3,20c0-2.1,2.5-3.9,5.2-3.9c0.6,0,1.2,0.1,1.8,0.3c1.5,1.1,2.6,1.7,2.9,2.9
		c0.1,0.2,0.1,0.5,0.1,0.8C13,22.2,11.6,23.9,7.7,23.9z"/>
</g>
</svg>
