<?xml version="1.0" encoding="utf-8"?>
<!-- Generator: Adobe Illustrator 24.0.0, SVG Export Plug-In . SVG Version: 6.00 Build 0)  -->
<svg version="1.1" id="Слой_1" xmlns="http://www.w3.org/2000/svg" xmlns:xlink="http://www.w3.org/1999/xlink" x="0px" y="0px"
	 width="26px" height="26px" viewBox="0 0 26 26" style="enable-background:new 0 0 26 26;" xml:space="preserve">
<style type="text/css">
	.st0{fill:#2BB075;}
</style>
<g>
	<path class="st0" d="M23.3,0.9c1.6,0,2.4,1,2,2.5c-0.8,2.7-1.8,5.3-2.7,7.9c-1.4,4-2.8,8.1-4.2,12.1c-0.3,1-0.7,1.9-1.9,2
		c-1.2,0.1-1.8-0.7-2.3-1.6c-1.1-2.2-2.2-4.5-3.4-6.7c-0.4-0.7-1-1.3-1.7-1.7c-1.9-1-3.9-1.9-5.8-2.9c-0.4-0.2-0.9-0.5-1.3-0.8
		c-1.6-1.2-1.3-3,0.6-3.7c6.5-2.3,13.1-4.6,19.6-6.9C22.7,1,23.1,0.9,23.3,0.9z"/>
</g>
</svg>
