<?xml version="1.0" encoding="utf-8"?>
<!-- Generator: Adobe Illustrator 24.0.0, SVG Export Plug-In . SVG Version: 6.00 Build 0)  -->
<svg version="1.1" id="Слой_1" xmlns="http://www.w3.org/2000/svg" xmlns:xlink="http://www.w3.org/1999/xlink" x="0px" y="0px"
	 width="29px" height="23px" viewBox="0 0 29 23" style="enable-background:new 0 0 29 23;" xml:space="preserve">
<style type="text/css">
	.st0{fill:#006F3E;stroke:#006F3E;stroke-width:0.5;stroke-miterlimit:10;}
</style>
<g>
	<path class="st0" d="M1.4,4.7c0.5,0,0.9,0,1.3,0c0,4.6,0,9.2,0,13.7c0,0.4,0,0.9,0.2,1.2c0.3,0.4,0.8,1,1.2,1
		c0.4,0,0.9-0.5,1.2-0.9c0.2-0.3,0.2-0.8,0.2-1.2c0-5.5,0-11,0-16.5c0-0.3,0-0.6,0-1c7.4,0,14.7,0,22,0c0,5.9,0,11.9,0,17.8
		c0,1.9-1.4,3.1-3.1,3.1c-6.7,0-13.3-0.1-20,0c-1.7,0-3.2-1.2-3.1-3.1c0.1-4.5,0-9,0-13.5C1.4,5.2,1.4,5,1.4,4.7z M6.7,20.5
		c0.2,0,0.4,0.1,0.5,0.1c5.7,0,11.5,0,17.2,0c1,0,1.9-0.8,1.9-2c-0.1-5.1,0-10.2,0-15.3c0-0.9-0.2-1.1-1.1-1.1c-5.7,0-11.4,0-17.1,0
		c-1.3,0-1.3,0-1.3,1.2c0,5,0,10,0,15C6.8,19.2,6.7,19.8,6.7,20.5z"/>
	<path class="st0" d="M17.4,11.2c2.3,0,4.5,0,6.8,0c0,2.5,0,5,0,7.6c-1.5,0-3,0-4.4,0c-0.8,0-1.8,0.2-2.2-0.2
		c-0.4-0.3-0.1-1.4-0.1-2.1C17.4,14.7,17.4,13,17.4,11.2z M22.6,12.5c-1.1,0-2.3,0-3.4,0c-0.2,0-0.5,0.4-0.5,0.6c0,1.2,0,2.4,0,3.6
		c0,0.2,0.3,0.6,0.5,0.6c1.1,0.1,2.2,0,3.4,0C22.6,15.7,22.6,14.2,22.6,12.5z"/>
	<path class="st0" d="M16.6,7.2c2.2,0,4.3,0,6.5,0c0.6,0,1.1,0,1.1,0.8c0,0.7-0.5,0.8-1.1,0.8c-4.4,0-8.8,0-13.2,0
		c-0.6,0-1-0.2-1-0.8c0-0.6,0.5-0.8,1.1-0.8C12.2,7.3,14.4,7.2,16.6,7.2z"/>
	<path class="st0" d="M16.5,4.1c2.2,0,4.4,0,6.6,0c0.5,0,1,0,1,0.7c0,0.7-0.5,0.8-1,0.8c-4.4,0-8.8,0-13.2,0c-0.6,0-1.1-0.2-1.1-0.8
		c0-0.7,0.5-0.7,1.1-0.7C12.2,4.1,14.4,4.1,16.5,4.1z"/>
	<path class="st0" d="M12.3,11.2c0.8,0,1.6,0,2.4,0c0.4,0,0.8,0,0.9,0.6c0,0.6-0.3,0.8-0.9,0.8c-0.7,0-1.4,0-2.1,0
		c-0.9,0-1.9,0-2.8,0c-0.5,0-0.9-0.2-0.9-0.8c0-0.5,0.4-0.7,0.9-0.7C10.6,11.2,11.5,11.2,12.3,11.2z"/>
	<path class="st0" d="M12.2,14.3c0.8,0,1.7,0,2.5,0c0.5,0,0.8,0.1,0.8,0.6c0,0.6-0.4,0.8-0.8,0.8c-1,0-2,0-3,0c-0.6,0-1.3,0-1.9,0
		c-0.5,0-1-0.1-1-0.7c0-0.6,0.4-0.7,0.9-0.7C10.6,14.3,11.4,14.3,12.2,14.3z"/>
	<path class="st0" d="M12.2,17.4c0.8,0,1.7-0.1,2.5,0c0.3,0,0.7,0.3,0.8,0.6c0.1,0.5-0.3,0.8-0.8,0.8c-1.7,0-3.4,0-5.2,0
		c-0.2,0-0.5-0.4-0.7-0.7c0.3-0.2,0.5-0.7,0.8-0.7C10.5,17.3,11.4,17.4,12.2,17.4z"/>
</g>
</svg>
