<?xml version="1.0" encoding="utf-8"?>
<!-- Generator: Adobe Illustrator 24.0.0, SVG Export Plug-In . SVG Version: 6.00 Build 0)  -->
<svg version="1.1" id="Слой_1" xmlns="http://www.w3.org/2000/svg" xmlns:xlink="http://www.w3.org/1999/xlink" x="0px" y="0px"
	 width="30px" height="30px" viewBox="0 0 30 30" style="enable-background:new 0 0 30 30;" xml:space="preserve">
<style type="text/css">
	.st0{fill:#006F3E;}
</style>
<g>
	<path class="st0" d="M29,11.2c-0.9-3.4-2.9-6-5.8-8c-3.6-2.4-7.5-3-11.6-2c0,0-1,0.4-1,0.3C7.3,2.8,4.7,4.8,2.9,7.8
		c-2.1,3.6-2.6,7.5-1.4,11.5c1,3.4,3.1,6.1,6.1,8c3.7,2.3,7.6,2.8,11.7,1.6c3.5-1,6.2-3.1,8.1-6.2C29.6,19.1,30.1,15.3,29,11.2z
		 M28.2,17.3c-0.3,1.5-0.8,3-1.6,4.3c-0.7,1.2-1.6,2.3-2.6,3.2c-0.3,0.3-0.7,0.6-1.1,0.9c-0.4-1-1-1.9-1.6-2.7c0,0-0.9-1-1.3-1.3
		c-0.4-0.3-0.8-0.6-1.2-0.9c-0.6-0.4-1.2-0.6-1.9-0.8c-0.8-0.2-1.5-0.3-2.3-0.2c-0.5,0-0.9,0.2-1.4,0.3c-0.5,0.1-1,0.3-1.4,0.6
		c-0.5,0.3-1,0.6-1.5,1c-0.6,0.6-1.2,1.2-1.7,1.9c-0.4,0.6-0.8,1.3-1.1,2c0,0.1-0.1,0.2-0.1,0.3c-2.4-1.8-4-4.1-4.9-6.9
		c-0.8-2.8-0.7-5.5,0.3-8.2c1-2.7,2.7-4.8,5.1-6.4C8,4.2,9,3.5,9,3.5c4.1-2,8.3-2.1,12.4,0c2.8,1.5,4.8,3.7,6,6.6
		c0.5,1.2,0.8,2.4,0.9,3.7C28.4,15,28.4,16.2,28.2,17.3z"/>
	<path class="st0" d="M15.2,8c-2.9,0-5,2.2-5.2,5c0,0.8,0.1,1.5,0.4,2.2c0.3,0.7,0.7,1.3,1.2,1.8c0.6,0.5,1.2,0.9,1.9,1.1
		c0.7,0.2,1.4,0.3,2.2,0.2c2.3-0.2,4.6-2.2,4.6-5.4c0-1.2-0.5-2.5-1.6-3.5C17.8,8.5,16.6,8,15.2,8z"/>
	<path class="st0" d="M7.9,4"/>
</g>
</svg>
