<?xml version="1.0" encoding="utf-8"?>
<!-- Generator: Adobe Illustrator 24.0.0, SVG Export Plug-In . SVG Version: 6.00 Build 0)  -->
<svg version="1.1" id="Слой_1" xmlns="http://www.w3.org/2000/svg" xmlns:xlink="http://www.w3.org/1999/xlink" x="0px" y="0px"
	 width="53px" height="45px" viewBox="0 0 53 45" style="enable-background:new 0 0 53 45;" xml:space="preserve">
<style type="text/css">
	.st0{fill:#006F3E;}
</style>
<g>
	<path class="st0" d="M10.9,1.9c-3,0-6,0-8.9,0c-0.4,0-0.8-0.3-1.2-0.5C1.2,1.1,1.6,0.6,2,0.6c3.1-0.1,6.2,0,9.3,0
		c0.7,0,0.9,0.2,1.1,1c0.4,2,1,4.1,1.6,6.1c0.1,0.2,0.4,0.5,0.7,0.6c0.3,0.1,0.7,0,1,0c11.5,0,23,0,34.4,0c0.5,0,0.9,0,1.8,0
		c-0.4,1.2-0.7,2.3-1,3.3c-0.5,1.7-1.1,3.4-1.7,5.1c-0.2,0.6-0.5,1.1-0.7,1.6c-0.8,2.3-1.6,4.5-2.4,6.8c-0.3,0.9-0.5,1.8-0.9,2.6
		c-0.2,0.4-0.9,0.6-1.3,0.6c-5.8,0.1-11.6,0.2-17.4,0.2c-1.8,0-3.7-0.1-5.5-0.1c-0.5,0-0.9,0.1-1.4,0.1c0.4,1.6,0.8,3,1.2,4.5
		c2.1,0,4.2,0,6.2,0c5.5,0,10.9,0,16.4,0c0.3,0,0.7-0.1,1,0.1c0.3,0.1,0.5,0.5,0.6,0.7c0,0.2-0.3,0.5-0.5,0.6
		c-0.3,0.1-0.7,0.1-1,0.2c-3.9,0.1-18.6-0.1-22.9,0c-0.7,0-1.1-0.3-1.3-1.2c-0.5-2.3-1.2-4.4-1.8-6.7c-0.4-1.5-0.9-3-1.3-4.6
		c-0.7-2.4-1.3-4.9-1.9-7.3c-0.4-1.6-0.8-3.2-1.2-4.8c-0.4-1.6-0.9-3.2-1.3-4.8C11.5,3.9,11.2,3,10.9,1.9z M26.8,16.1
		c0.3,3.6,0.6,7,0.9,10.4c1.3,0,2.3,0,3.3,0c0-3.5,0-6.9,0-10.4C29.6,16.1,28.2,16.1,26.8,16.1z M35.7,26.5c0.3-3.5,0.7-6.9,1-10.3
		c-1.5,0-2.8,0-4.1,0c0,3.5,0,6.9,0,10.3C33.7,26.5,34.7,26.5,35.7,26.5z M26.2,26.5c-0.3-3.5-0.6-6.9-0.9-10.4c-1.6,0-2.9,0-4.3,0
		c0.7,3.5,1.4,7,2,10.4C24.2,26.5,25.2,26.5,26.2,26.5z M37.2,26.5c0.9,0,1.8,0.1,2.6,0c0.3,0,0.7-0.5,0.7-0.8
		c0.4-1.9,0.7-3.8,1-5.7c0.2-1.3,0.5-2.6,0.7-3.9c-1.5,0-2.8,0-4.1,0C37.9,19.6,37.6,23,37.2,26.5z M47.8,15.8c-1.2,0-2.1-0.1-3,0
		c-0.4,0.1-0.9,0.5-1,0.8c-0.7,3.2-1.2,6.5-1.9,9.8c1,0.2,2,0.4,2.4-0.9c0.8-2.4,1.7-4.8,2.6-7.2C47.2,17.5,47.4,16.8,47.8,15.8z
		 M16.2,16.1c0.8,2.8,1.7,5.5,2.3,8.3c0.5,2.2,0.5,2.3,2.8,2c-0.4-2.5-0.8-5.1-1.2-7.6c-0.5-2.9-0.6-3-3.7-2.8
		C16.4,16.1,16.4,16.1,16.2,16.1z M26.2,9.8c0.1,1.5,0.2,3.1,0.3,4.6c1.5,0,3,0,4.5,0c0-1.6,0-3,0-4.6C29.5,9.8,27.9,9.8,26.2,9.8z
		 M45.1,9.8c-0.3,1.6-0.6,3.1-0.8,4.6c1.4,0,2.7,0,4.1,0c0.6-1.6,1.2-3.2,2-5C48.3,9.5,46.8,9.6,45.1,9.8z M19.8,9.7
		c0.3,1.7,0.6,3.2,0.9,4.7c1.6,0,3,0,4.2,0c0-1.3,0-2.5,0-3.7c0-0.7-0.2-1.1-0.9-1C22.6,9.7,21.3,9.7,19.8,9.7z M32.5,14.4
		c1.5,0,2.9,0,4.3,0c0.2-1.6,0.3-3.1,0.5-4.6c-1.6,0-3.1,0-4.7,0C32.5,11.3,32.5,12.8,32.5,14.4z M38.2,14.5c1.4,0,2.6,0.1,3.8,0
		c0.3,0,0.8-0.6,0.9-0.9c0.3-1.2,0.4-2.4,0.5-3.7c-1.5,0-3.1,0-4.5,0C38.7,11.3,38.5,12.8,38.2,14.5z M14.6,9.9
		c0.4,1.3,0.7,2.8,1.1,4.2c0.1,0.2,0.5,0.4,0.7,0.4c0.9,0,1.7,0,2.6,0c-0.1-0.6-0.2-1-0.3-1.5c-0.4-3.5-0.4-3.5-4-3.2
		C14.9,9.7,14.8,9.8,14.6,9.9z"/>
	<path class="st0" d="M46.5,39.5c0,2-1.8,4-3.9,4c-1.9,0.1-4.2-2.1-4.1-4c0.2-1.9,1.6-3.7,3.8-3.9C44.5,35.5,46.3,37.4,46.5,39.5z
		 M44.8,39.6c0-1.4-0.8-2.3-2.1-2.4c-1.5,0-2.5,0.9-2.5,2.3c0,1.3,1,2.4,2.3,2.4C43.9,42,44.8,41,44.8,39.6z"/>
	<path class="st0" d="M18.6,39.6c0-2.4,1.4-3.9,3.6-3.9c2.4,0,4,1.6,4.1,3.9c0.1,1.7-1.9,4-3.9,4C20.1,43.5,18.6,41.8,18.6,39.6z
		 M22.2,37.2c-1.3,0-2.3,0.9-2.3,2.3c0,1.4,1,2.4,2.4,2.4c1.1,0,2.6-1.4,2.5-2.5C24.8,38.2,23.6,37.2,22.2,37.2z"/>
</g>
</svg>
