<?xml version="1.0" encoding="utf-8"?>
<!-- Generator: Adobe Illustrator 24.0.0, SVG Export Plug-In . SVG Version: 6.00 Build 0)  -->
<svg version="1.1" id="Слой_1" xmlns="http://www.w3.org/2000/svg" xmlns:xlink="http://www.w3.org/1999/xlink" x="0px" y="0px"
	 width="173px" height="39px" viewBox="0 0 173 39" style="enable-background:new 0 0 173 39;" xml:space="preserve">
<style type="text/css">
	.st0{stroke:#000000;stroke-miterlimit:10;}
	.st1{fill:#006F3E;}
	.st2{fill:#00934F;}
	.st3{fill:#5DB781;}
	.st4{fill:#8FCAA5;}
	.st5{fill:#B8DBC2;}
</style>
<g>
	<g>
		<path class="st0" d="M134.3,37.7H104V25.4c0-1.9,0.6-3.5,1.7-4.8c1.2-1.3,2.7-2,4.7-2.2l12.3-1.4c1.5-0.2,2.4-0.4,3-0.8
			c0.5-0.4,0.8-1,0.8-1.8v-1.8c0-0.8-0.3-1.3-0.9-1.7s-1.5-0.6-2.7-0.6h-6.8c-1.7,0-2.9,0.4-3.6,1.1c-0.7,0.7-1,1.9-1,3.6
			c0,0,0,0.1,0,0.2c0,0.1,0,0.1,0,0.2c0,0,0,0.1,0,0.1c0,0,0,0.1,0,0.1H104v-2.5c0-4,0.7-6.8,2.2-8.4c1.5-1.6,4.2-2.3,8.2-2.3H125
			c3.1,0,5.4,0.7,6.9,2c1.4,1.3,2.1,3.4,2.1,6.3v5.8c0,2.2-0.6,4.1-1.7,5.4c-1.1,1.4-2.6,2.2-4.6,2.4l-14,1.6
			c-0.8,0.1-1.4,0.4-1.8,1c-0.4,0.6-0.6,1.5-0.6,2.6v0.2h22.9V37.7z"/>
		<path class="st0" d="M167.7,37.7h-7.4v-7h-20V18l18.3-15.1h9.1v19.8h4v8h-4V37.7z M160.3,22.6V11.3l-13.6,11.3H160.3z"/>
	</g>
	<g>
		<path class="st1" d="M78.5,10.7v5.7c0,0.6,0.5,1.1,1.1,1.1h13.6c0.6,0,1.1,0.5,1.1,1.1v5.6c0,0.6-0.5,1.1-1.1,1.1H79.6
			c-0.6,0-1.1,0.5-1.1,1.1v10.1c0,0.6-0.5,1.1-1.1,1.1h-7.9c-0.6,0-1.1-0.5-1.1-1.1V26c0-0.2-0.1-0.4-0.2-0.6l-5-7.5
			c-0.3-0.4-0.3-0.9,0-1.3l5-7.4c0.1-0.2,0.2-0.4,0.2-0.6V2.8c0-0.6,0.5-1.1,1.1-1.1h26c0.6,0,1.1,0.5,1.1,1.1v5.6
			c0,0.6-0.5,1.1-1.1,1.1H79.6C79,9.6,78.5,10.1,78.5,10.7z"/>
		<path class="st1" d="M58.8,25.1c0-0.2-0.1-0.4-0.2-0.6l-4.1-6.6c-0.3-0.4-0.3-0.9,0-1.3l4-6.4c0.1-0.2,0.2-0.4,0.2-0.6V2.6
			c0-0.5-0.4-1-1-1H53c-0.6,0-1.1,0.5-1.1,1.1v5.7c0,0.2-0.1,0.5-0.2,0.6l-4.4,6.5c-0.6,0.9-0.6,2.1,0,3l4.5,6.7
			c0.1,0.2,0.2,0.4,0.2,0.6v10.6c0,0.6,0.5,1.1,1.1,1.1h4.9c0.5,0,1-0.4,1-1V25.1z"/>
		<path class="st2" d="M44.5,25.1c0-0.2-0.1-0.4-0.2-0.6l-4.1-6.6c-0.3-0.4-0.3-0.9,0-1.3l4-6.4c0.1-0.2,0.2-0.4,0.2-0.6V2.6
			c0-0.5-0.4-1-1-1h-3.9c-0.6,0-1.1,0.5-1.1,1.1v5.7c0,0.2-0.1,0.5-0.2,0.6l-4.4,6.5c-0.6,0.9-0.6,2.1,0,3l4.5,6.7
			c0.1,0.2,0.2,0.4,0.2,0.6v10.6c0,0.6,0.5,1.1,1.1,1.1h3.9c0.5,0,1-0.4,1-1V25.1z"/>
		<path class="st3" d="M31.2,25.1c0-0.2-0.1-0.4-0.2-0.6L27,17.8c-0.3-0.4-0.3-0.9,0-1.3l4-6.4c0.1-0.2,0.2-0.4,0.2-0.6V2.6
			c0-0.5-0.4-1-1-1h-2.5c-0.6,0-1.1,0.5-1.1,1.1v5.7c0,0.2-0.1,0.5-0.2,0.6L22,15.7c-0.6,0.9-0.6,2.1,0,3l4.5,6.7
			c0.1,0.2,0.2,0.4,0.2,0.6v10.6c0,0.6,0.5,1.1,1.1,1.1h2.5c0.5,0,1-0.4,1-1V25.1z"/>
		<path class="st4" d="M19.3,25.1c0-0.2-0.1-0.4-0.2-0.6l-4.1-6.6c-0.3-0.4-0.3-0.9,0-1.3l4-6.4c0.1-0.2,0.2-0.4,0.2-0.6V2.6
			c0-0.5-0.4-1-1-1h-1.6c-0.6,0-1,0.5-1,1.1v5.7c0,0.2-0.1,0.5-0.2,0.6l-4.4,6.5c-0.6,0.9-0.6,2.1,0,3l4.5,6.7
			c0.1,0.2,0.2,0.4,0.2,0.6v10.6c0,0.6,0.4,1.1,1,1.1h1.6c0.5,0,1-0.4,1-1V25.1z"/>
		<path class="st5" d="M8.4,25.1c0-0.2-0.1-0.4-0.2-0.6l-4.1-6.6c-0.3-0.4-0.3-0.9,0-1.3l4-6.4C8.3,10,8.4,9.7,8.4,9.5V2.6
			c0-0.5-0.4-1-1-1H7.1c-0.6,0-1,0.5-1,1.1v5.7C6.1,8.8,6,9,5.9,9.2l-4.4,6.5c-0.6,0.9-0.6,2.1,0,3l4.5,6.7C6,25.6,6.1,25.8,6.1,26
			v10.6c0,0.6,0.3,1.1,0.9,1.1h0.5c0.5,0,1-0.4,1-1V25.1z"/>
	</g>
</g>
</svg>
