<?xml version="1.0" encoding="utf-8"?>
<!-- Generator: Adobe Illustrator 24.0.0, SVG Export Plug-In . SVG Version: 6.00 Build 0)  -->
<svg version="1.1" id="Слой_1" xmlns="http://www.w3.org/2000/svg" xmlns:xlink="http://www.w3.org/1999/xlink" x="0px" y="0px"
	 width="28px" height="28px" viewBox="0 0 28 28" style="enable-background:new 0 0 28 28;" xml:space="preserve">
<style type="text/css">
	.st0{fill:#0B2842;}
	.st1{fill:none;stroke:#0B2842;stroke-miterlimit:10;}
</style>
<g>
	<path class="st0" d="M18.3,8.7c0.8,0,1.2,0.5,1,1.2c-0.4,1.3-0.9,2.6-1.3,3.8c-0.7,2-1.4,3.9-2,5.9c-0.2,0.5-0.4,0.9-0.9,1
		c-0.6,0.1-0.9-0.3-1.1-0.8c-0.6-1.1-1.1-2.2-1.6-3.2c-0.2-0.3-0.5-0.6-0.8-0.8c-0.9-0.5-1.9-0.9-2.8-1.4C8.4,14.2,8.2,14.1,8,14
		c-0.8-0.6-0.6-1.4,0.3-1.8c3.2-1.1,6.3-2.2,9.5-3.4C18,8.8,18.2,8.7,18.3,8.7z"/>
	<circle class="st1" cx="13.9" cy="14.2" r="12.4"/>
</g>
</svg>
