<?xml version="1.0" encoding="utf-8"?>
<!-- Generator: Adobe Illustrator 24.0.0, SVG Export Plug-In . SVG Version: 6.00 Build 0)  -->
<svg version="1.1" id="Слой_1" xmlns="http://www.w3.org/2000/svg" xmlns:xlink="http://www.w3.org/1999/xlink" x="0px" y="0px"
	 width="56px" height="60px" viewBox="0 0 56 60" style="enable-background:new 0 0 56 60;" xml:space="preserve">
<style type="text/css">
	.st0{fill:#006F3E;}
	.st1{fill:#006F3E;stroke:#006F3E;stroke-miterlimit:10;}
</style>
<g>
	<path class="st0" d="M48.7,40.1c0-0.8,0-1.6,0-2.4h0c0-5.6,0-11.2,0-16.8c0-0.9-0.1-2-0.7-2.6c-3-3.3-6.1-6.4-9.2-9.6
		c-0.6-0.6-1.5-1.2-2.3-1.2c-7.9-0.1-15.9-0.1-23.8-0.1c-1,0-1.8,0.5-1.8,1.7c0,4.6,0,9.3,0,13.9c0,0,0,0,0,0c0,1.8,0,3.6,0,5.4
		c1.1,0,2.4,0,3.5,0c0-1.8,0-3.6,0-5.4c0,0,0,0,0,0c0,0,0-0.1,0-0.1c0-0.2,0-0.4,0-0.6c0,0,0,0,0,0c0-3.3,0-6.7,0-10
		c0-1.4,0.3-2.1,2-2.1c5.9,0.1,11.9,0.1,17.8,0c1.5,0,2.1,0.7,2.1,2.1c0,2.2,0,4.4-0.1,6.6c0,1.1,0.3,1.5,1.4,1.5
		c1.9-0.1,3.8-0.1,5.6-0.1c2.3,0,2.5,0.3,2.5,2.6c0,5.6,0,11.3,0,16.9c0,0,0,0,0,0c0,0.9,0,1.7,0,2.6c0,2.7,0,2.7-2.7,2.8
		c-0.9,0-1.5,0.3-1.4,1.3c0.1,1,0.3,1.6,1.4,1.6c1.2,0,2.5-0.2,3.7,0c1.7,0.3,1.9-0.6,1.9-2C48.7,44.3,48.7,42.2,48.7,40.1
		C48.7,40.1,48.7,40.1,48.7,40.1z M43.4,18.7c-1.5,0-3.1,0-4.6,0c-0.3,0-0.7-0.5-0.7-0.8c-0.1-1.6,0-3.1,0-4.7
		c0.2-0.1,0.4-0.1,0.6-0.2c1.7,1.7,3.3,3.5,5,5.2C43.5,18.4,43.4,18.5,43.4,18.7z"/>
	<path class="st1" d="M54.9,35.3C54.9,35.3,54.9,35.3,54.9,35.3c0-6.8,0-13.5-0.1-20.3c0-1-0.4-2.2-1.1-2.9c-2.9-3.2-6-6.4-9.1-9.5
		c-0.6-0.6-1.6-1-2.5-1c-7.7-0.1-15.4,0-23.1,0c-1.1,0-2,0.2-2,1.6c-0.1,1.6,1,1.3,1.9,1.3c7,0,14.1,0,21.1,0c1.3,0,2.1,0.4,2.2,1.8
		c0.1,0.7,0.6,1.4,0.9,2.2c0.5-0.3,1.1-0.7,1.8-1.1c1.5,1.6,3,3.2,4.4,4.7c-0.5,0.9-0.9,1.4-1.2,1.9c0.6,0.3,1.2,0.5,1.7,0.8
		c0.6,0.3,1.6,0.6,1.8,1.1c0.4,1.2,0.7,2.5,0.7,3.7c0,5.3,0,10.5,0,15.8c0,0,0,0,0,0c0,2.1,0,4.1,0,6.2c0,0.9-0.2,1.9,1.2,1.9
		c1.2,0,1.3-0.9,1.3-1.9C54.9,39.4,54.9,37.4,54.9,35.3z"/>
	<g>
		<path class="st0" d="M38.5,50.6c-0.7,0-1.3,0-1.8,0c-11.1,0-22.2,0-33.2,0c-1.6,0-2.1-0.5-2-2.1c0.1-4,0-8,0-12
			c0-2.1,1.2-3.3,3.2-3.3c10.3,0,20.6,0,30.9,0c1.8,0,3,1.2,3,3c0,4.3,0,8.5,0,12.8C38.6,49.4,38.6,49.9,38.5,50.6z M11.5,39.5
			C11.5,39.5,11.5,39.6,11.5,39.5c1.7,0,3.3,0.1,5,0c0.4,0,0.8-0.6,1.2-0.9c-0.4-0.3-0.8-0.9-1.2-0.9c-3.3-0.1-6.6,0-9.9,0.1
			c-0.5,0-0.9,0.6-1.4,0.8c0.5,0.3,0.9,0.8,1.4,0.8C8.2,39.6,9.8,39.5,11.5,39.5z"/>
		<path class="st0" d="M20.2,54.6c5.5,0,11,0,16.5,0c0.8,0,1.9-0.3,2,1.1c0,1.3,0.3,2.7-1.6,2.9c-0.5,0.1-1,0.2-1.5,0.2
			c-10.4,0-20.7,0-31.1,0c-1.4,0-2.5-0.3-2.9-1.8c-0.3-1.4,0.4-2.4,1.8-2.4C9,54.6,14.6,54.6,20.2,54.6
			C20.2,54.6,20.2,54.6,20.2,54.6z"/>
	</g>
	<g>
		<path class="st0" d="M38.1,23.9c0.2,1.4-0.4,1.8-1.6,1.8c-4.3,0-8.6,0-12.9,0c-0.8,0-1.6,0-1.4-1c0.1-0.4,0.8-0.9,1.3-0.9
			c4.5-0.1,9.1,0,13.6,0C37.4,23.8,37.7,23.8,38.1,23.9z"/>
		<path class="st0" d="M38.5,29.8c-0.6,0.3-1.3,0.7-1.9,0.7c-4.3,0.1-8.5,0.1-12.8,0c-0.6,0-1.2-0.6-1.8-1c0.6-0.3,1.2-0.9,1.7-0.9
			c4.3-0.1,8.5-0.1,12.8,0c0.6,0,1.2,0.3,1.8,0.5C38.4,29.4,38.4,29.6,38.5,29.8z"/>
	</g>
</g>
</svg>
