<?xml version="1.0" encoding="utf-8"?>
<!-- Generator: Adobe Illustrator 24.0.0, SVG Export Plug-In . SVG Version: 6.00 Build 0)  -->
<svg version="1.1" id="Слой_1" xmlns="http://www.w3.org/2000/svg" xmlns:xlink="http://www.w3.org/1999/xlink" x="0px" y="0px"
	 width="57px" height="53px" viewBox="0 0 57 53" style="enable-background:new 0 0 57 53;" xml:space="preserve">
<style type="text/css">
	.st0{fill:#006F3E;}
</style>
<g>
	<path class="st0" d="M22.5,22.3c6.1,0,12.3,0,18.4,0c1.7,0,3.4,1.4,3.3,3.3c-0.1,7.7-0.1,15.3,0,23c0,2.1-1.3,3.3-3.3,3.3
		c-1.8,0-3.6,0-5.4,0c-10.4,0-20.8,0-31.2,0c-0.9,0-2-0.3-2.6-0.8c-0.6-0.5-1-1.5-1-2.3c-0.1-7.7,0-15.5-0.1-23.2
		c0-1.6,1.6-3.3,3.3-3.3C10,22.3,16.3,22.3,22.5,22.3z M22.3,39.8c5.8,0,11.6,0,17.4,0c0.9,0,1.2-0.2,1.2-1.2c0-4,0-7.9,0-11.9
		c0-0.9-0.3-1.2-1.2-1.2c-11.6,0-23.2,0-34.8,0c-0.9,0-1.1,0.3-1.1,1.1c0,4,0.1,7.9,0,11.9c0,1,0.4,1.3,1.3,1.2
		C10.9,39.8,16.6,39.8,22.3,39.8z M22.4,45.6c-3.8,0-7.5,0-11.3,0c-2.1,0-4.1,0-6.2,0c-0.4,0-0.9,0.2-1,0.5c-0.6,1.8,0,2.7,1.9,2.7
		c11,0,22,0,32.9,0c0.3,0,0.6,0,0.9,0c1.1-0.1,1.3-0.4,1.3-2.2c0-1.1-0.7-0.9-1.3-0.9C33.9,45.6,28.1,45.6,22.4,45.6z"/>
	<path class="st0" d="M7,21c0.6-1.1,1.2-2.1,1.7-3c1.2-2.1,2.4-4.3,3.7-6.4c1.4-2.4,2.8-4.8,4.3-7.3c0.3-0.4,0.6-0.9,0.8-1.3
		c0.9-2.1,2.9-2.1,4.4-1.3c2.6,1.4,5.2,2.9,7.8,4.4c2.8,1.6,5.5,3.3,8.3,4.9c2.4,1.4,4.9,2.7,7.4,4.1c2.1,1.2,4.1,2.5,6.2,3.7
		c0.8,0.5,1.6,0.9,2.4,1.4c2.3,1.3,2.1,2.8,1.1,4.5c-1.2,2.2-2.4,4.4-3.7,6.5c-1.2,2.1-2.5,4.1-3.7,6.2c-0.5,0.9-1,1.8-1.5,2.7
		c-0.1,0.2-0.3,0.3-0.6,0.7c0-0.7-0.1-1.2-0.1-1.6c0-4.6-0.1-9.2,0-13.9c0-2.6-2-4.3-4.3-4.3c-8.2,0-16.4,0-24.6,0
		c-2.7,0-5.5,0-8.2,0C7.9,21.1,7.5,21,7,21z M28.7,11.4c-0.3-0.4-0.4-0.9-0.7-1.2c-1.1-0.8-2.2-1.5-3.4-2.2
		c-0.4-0.2-0.9-0.3-1.3,0.5c-1.1,2.1-2.4,4.1-3.6,6.2c-0.6,0.9,0.2,1.2,0.7,1.5c0.5,0.4,1.2,0.5,1.6-0.2c0.7-1.2,1.4-2.5,2.1-3.8
		c0.5-1,0.9-1.2,1.9-0.5c0.4,0.2,0.7,0.5,1.1,0.6c0.3,0.1,0.8,0.3,1.1,0.1C28.4,12.3,28.5,11.8,28.7,11.4z M19.5,9.3
		c-1.4-0.1-1.6,0.8-1.4,1.3c0.2,0.5,1,0.9,1.5,1.3c0.4-0.5,1.1-1,1-1.4C20.5,9.9,19.8,9.5,19.5,9.3z M19.3,7.5
		c0.5,0.4,0.8,0.7,1.1,0.8c0.5,0.1,1.2,0.3,1.5,0.1c0.4-0.3,0.4-1,0.6-1.5c-0.5-0.1-1.1-0.4-1.6-0.3C20.4,6.7,19.9,7.2,19.3,7.5z
		 M27.3,14.1c-0.7-0.5-1.3-1.4-2.3-0.9c-0.3,0.1-0.5,0.8-0.4,0.9c0.5,0.5,1.1,1,1.6,1.5C26.7,15,26.9,14.6,27.3,14.1z M24,18.2
		c0.5-0.5,1-0.9,1.4-1.3c-0.5-0.4-1-1.1-1.4-1.1c-0.4,0-0.8,0.8-1.2,1.3C23.1,17.5,23.5,17.8,24,18.2z M17.2,11.9
		c-0.5,1.3-0.5,2.3,0.2,2.5c0.4,0.1,1.1-0.1,1.2-0.3C19.4,12.6,17.9,12.6,17.2,11.9z"/>
</g>
</svg>
