<?xml version="1.0" encoding="utf-8"?>
<!-- Generator: Adobe Illustrator 24.0.0, SVG Export Plug-In . SVG Version: 6.00 Build 0)  -->
<svg version="1.1" id="Слой_1" xmlns="http://www.w3.org/2000/svg" xmlns:xlink="http://www.w3.org/1999/xlink" x="0px" y="0px"
	 width="72px" height="31px" viewBox="0 0 72 31" style="enable-background:new 0 0 72 31;" xml:space="preserve">
<style type="text/css">
	.st0{fill:#006F3E;}
	.st1{fill:#FFFFFF;}
</style>
<g>
	<path class="st0" d="M27.4,7.9c0.1-0.4,0.1-0.8,0.3-1c1.2-1.2,2.4-2.4,3.7-3.4c0.5-0.4,1.3-0.6,2-0.8c2-0.5,4-0.9,6-1.4
		c0.6-0.1,1.1-0.6,1.6-0.5c1.3,0.2,2.6,0.4,3.8,0.8c1.5,0.5,3,1.1,4.4,1.7c1.2,0.5,2.5,1,3.7,1.5c1.6,0.6,3.3,1.3,5,2
		c0,4.8,0,9.7,0,14.9c-2,0.4-4.1,0.8-6.2,1.3c-1.6,0.3-3.2,0.6-4.7,0.9c-1,0.2-1.9,0.3-2.9,0.4c-3,0.2-6,0.3-9.1,0.4
		c-1.4,0.1-2.8,0-3.9-1c-1.1-1.1-0.7-4,0.7-4.6c1.4-0.6,2.8-0.9,4.3-1.3c1.8-0.5,3.6-0.9,5.3-1.4c0.5-0.2,1.1-0.6,0.9-1.4
		c-0.2-1.1-0.3-2.2-0.6-3.2c-0.1-0.4-0.8-0.6-1.1-1C40.4,10.2,40,9.7,40,9.2c0-1.3,0-1.3-1.2-1.3C35,7.9,31.3,7.9,27.4,7.9z"/>
	<path class="st0" d="M59.3,15.4c0-3,0-6,0-9c0-0.9,0.2-1.2,1.1-1.2c3.1,0,6.3,0,9.4,0c0.9,0,1.2,0.4,1.2,1.2c0,6,0,12,0,18.1
		c0,0.9-0.6,1.2-1.3,1.2c-3.1,0-6.1,0.1-9.2,0c-0.8,0-1.3-0.4-1.3-1.4C59.4,21.4,59.3,18.4,59.3,15.4z"/>
	<path d="M24.3,25.9c-0.4-0.5-0.6-0.9-0.8-1.2c0-0.1,0.3-0.5,0.4-0.4c0.4,0.2,0.8,0.4,1.1,0.7C24.8,25.2,24.6,25.5,24.3,25.9z"/>
	<path class="st1" d="M20.2,22.5c-0.6-0.7-1-1.2-1.5-1.7C19.3,20.5,20,21.1,20.2,22.5z"/>
	<path class="st0" d="M39.2,26C39.2,26,39.2,26,39.2,26c0-2.3,0-4.5,0-6.8c0-2.3,0-4.5,0-6.8c0,0,0,0,0,0c0-0.9,0-1.8,0-2.8
		c0,0,0,0,0,0c0,0,0,0,0-0.1c0-0.3,0-0.5-0.1-0.6c0-0.1,0-0.3,0-0.4c-0.1,0-0.2,0-0.3,0c-0.1-0.1-0.3-0.1-0.6-0.1c0,0,0,0-0.1,0
		c-0.1,0-0.2,0-0.3,0c-4,0-8,0-11.9,0c-0.2,0-0.4,0-0.6,0c-1.7,0-3.4,0-5.1,0s-3.4,0-5.1,0c-0.2,0-0.4,0-0.6,0c-4,0-8,0-11.9,0
		c-0.1,0-0.2,0-0.3,0c0,0,0,0-0.1,0c-0.2,0-0.4,0-0.6,0.1c-0.1,0-0.2,0-0.3,0c0,0.1,0,0.3,0,0.4C1.5,9.2,1.5,9.4,1.5,9.6
		c0,0,0,0,0,0.1c0,0,0,0,0,0c0,0.2,0,0.4,0,0.6c0,3,0,6,0,8.9c0,3,0,6,0,8.9c0,0.2,0,0.4,0,0.6c0,0,0,0,0,0c0,0,0,0,0,0.1
		c0,0.3,0,0.5,0.1,0.6c0,0.1,0,0.3,0,0.4c0.1,0,0.2,0,0.3,0C2,30,2.2,30,2.4,30c0,0,0,0,0.1,0c0.1,0,0.2,0,0.3,0c4,0,8,0,11.9,0
		c0.2,0,0.4,0,0.6,0c1.7,0,3.4,0,5.1,0c1.7,0,3.4,0,5.1,0c0.2,0,0.4,0,0.6,0c4,0,8,0,11.9,0c0.1,0,0.2,0,0.3,0c0,0,0,0,0.1,0
		c0.2,0,0.4,0,0.6-0.1c0.1,0,0.2,0,0.3,0c0-0.1,0-0.3,0-0.4c0.1-0.2,0.1-0.4,0.1-0.6c0,0,0,0,0-0.1c0,0,0,0,0,0
		C39.2,27.9,39.2,26.9,39.2,26z M33.4,12.7c0,0.3,0.1,0.7,0.3,0.9c0.1,0.2,0.2,0.4,0.4,0.6c0.4,0.4,0.9,0.6,1.5,0.7
		c0.3,0.2,0.6,0.4,0.9,0.6c0,2.6,0,5.2,0,7.4c-0.3,0.2-0.6,0.4-0.9,0.6c-0.7,0.1-1.2,0.3-1.5,0.7c-0.2,0.2-0.3,0.4-0.4,0.6
		c-0.2,0.2-0.3,0.6-0.3,0.9c0,0,0,0,0,0c0,0.1,0,0.2-0.1,0.3c0,0.2-0.3,0.5-0.6,0.6c-2.9,0-5.8,0-8.9,0c-0.1,0-0.2-0.1-0.3-0.1
		c0.3-0.3,0.6-0.6,0.8-0.9c0,0,0,0,0.1-0.1c0.2-0.3,0.5-0.5,0.6-0.8c0.6-0.8,1-1.7,1.3-2.7c0.3-0.8,0.5-1.7,0.5-2.5
		c0-0.1,0-0.2,0-0.3c0-0.1,0-0.2,0-0.3c0-0.9-0.2-1.7-0.5-2.5c-0.3-1-0.8-2-1.3-2.7c-0.2-0.3-0.4-0.5-0.6-0.8c0,0,0,0-0.1-0.1
		c-0.3-0.3-0.5-0.6-0.8-0.9c0.1,0,0.2-0.1,0.3-0.1c3.1,0,6,0,8.9,0c0.3,0.1,0.6,0.4,0.6,0.6C33.3,12.5,33.3,12.6,33.4,12.7
		C33.4,12.7,33.4,12.7,33.4,12.7z M8,26.7c-0.3-0.1-0.6-0.4-0.6-0.6c0-0.1,0-0.2-0.1-0.3c0,0,0,0,0,0c0-0.3-0.1-0.7-0.3-0.9
		c-0.1-0.2-0.2-0.4-0.4-0.6c-0.4-0.4-0.9-0.6-1.5-0.7c-0.3-0.2-0.6-0.4-0.9-0.6c0-2.2,0-4.8,0-7.4c0.3-0.2,0.6-0.4,0.9-0.6
		c0.7-0.1,1.2-0.3,1.5-0.7c0.2-0.2,0.3-0.4,0.4-0.6c0.2-0.2,0.3-0.6,0.3-0.9c0,0,0,0,0,0c0-0.1,0-0.2,0.1-0.3c0-0.2,0.3-0.5,0.6-0.6
		c2.9,0,5.8,0,8.9,0c0.1,0,0.2,0.1,0.3,0.1c-0.3,0.3-0.6,0.6-0.8,0.9c0,0,0,0-0.1,0.1c-0.2,0.3-0.5,0.5-0.6,0.8c0,0,0,0,0,0
		c-0.6,0.8-1,1.7-1.3,2.7c-0.3,0.8-0.5,1.7-0.5,2.5c0,0.1,0,0.2,0,0.3c0,0.1,0,0.2,0,0.3c0,0.9,0.2,1.7,0.5,2.5c0.3,1,0.8,2,1.3,2.7
		c0,0,0,0,0,0c0.2,0.3,0.4,0.5,0.6,0.8c0,0,0,0,0.1,0.1c0.3,0.3,0.5,0.6,0.8,0.9c-0.1,0-0.2,0.1-0.3,0.1C13.8,26.7,10.9,26.7,8,26.7
		z"/>
</g>
</svg>
