<?xml version="1.0" encoding="utf-8"?>
<!-- Generator: Adobe Illustrator 24.0.0, SVG Export Plug-In . SVG Version: 6.00 Build 0)  -->
<svg version="1.1" id="Слой_1" xmlns="http://www.w3.org/2000/svg" xmlns:xlink="http://www.w3.org/1999/xlink" x="0px" y="0px"
	 width="55px" height="51px" viewBox="0 0 55 51" style="enable-background:new 0 0 55 51;" xml:space="preserve">
<style type="text/css">
	.st0{fill:#006F3E;}
	.st1{fill:#FFFFFF;}
</style>
<g>
	<g>
		<path class="st0" d="M7.9,49.8c-0.5-1.9,0.2-3.4,0.8-5c0.6-1.4,1.1-2.8,1.7-4.3c0.5-1.2,0.8-2.4,1.4-3.5c0.2-0.4,1.1-0.6,1.7-0.6
			c4.8,0,9.6,0,14.4,0c6.7,0,13.4,0,20.1,0c1,0,1.7,0.1,2.1,1.2c0.5,1.4,1.1,2.8,1.6,4.2c0.5,1.3,1.2,2.6,1.6,4
			c0.4,1,0.6,2.1,0.8,3.1c0.1,0.6-0.3,0.8-0.8,0.8c-0.3,0-0.5,0-0.8,0c-14.5,0-29.1,0-43.6,0C8.7,49.8,8.3,49.8,7.9,49.8z
			 M48.5,42.5c-0.3-0.7-0.6-1.2-0.6-1.7c-0.4-2.4-0.7-2.6-3-2.6c-0.5,0-1.1,0-1.6,0c-9,0-18,0-27.1,0c-0.5,0-1.4,0.3-1.5,0.7
			c-0.5,1.1-0.8,2.4-1.2,3.6C25.2,42.5,36.8,42.5,48.5,42.5z M25.4,46.5c3.5,0,7,0,10.4,0c0.2,0,0.6-0.3,0.6-0.5
			c0.2-0.9-0.4-1.5-1.4-1.5c-2.7,0-5.4,0-8.1,0C25.2,44.4,25.2,44.5,25.4,46.5z"/>
		<path class="st0" d="M30.8,35.6c-5.7,0-11.4,0-17.1,0c-1.4,0-1.6-0.1-1.6-1.5c0-4.5,0-9,0-13.5c0-1.3,0.2-1.5,1.5-1.5
			c0.3,0,0.5,0,0.8,0c0.9,0,1.3,0.3,1.3,1.3c-0.1,3.4,0,6.8,0,10.2c0,0.8,0.2,1.2,1.1,1.2c9.3,0,18.7,0,28,0c1.1,0,1.4-0.3,1.4-1.4
			c-0.1-4.9,0-9.9,0-14.8c0-0.9-0.3-1.2-1.2-1.2c-5.4,0-10.9,0-16.3,0c-1.4,0-1.4,0-1.4-1.4c0-2.4,0-2.4,2.4-2.4
			c6.2,0,12.3,0,18.5,0c1.5,0,1.7,0.3,1.7,1.8c0,7.2,0,14.3,0,21.5c0,1.6-0.2,1.8-1.8,1.8C42.3,35.6,36.5,35.6,30.8,35.6z"/>
		<path class="st0" d="M27.5,18.8c1.2,0,2.3,0.9,2.3,2c0,1.1-1.1,2.2-2.2,2.2c-1.1,0-2.3-1.1-2.3-2.2C25.3,19.7,26.3,18.8,27.5,18.8
			z"/>
		<path class="st0" d="M29.7,24.7c0-1,0.8-1.9,1.7-1.9c1,0,1.7,0.9,1.7,2c0,1.1-0.6,1.8-1.8,1.7C30.2,26.6,29.7,26,29.7,24.7z"/>
		<path class="st0" d="M36.3,28.2c0,1-0.6,1.6-1.5,1.6c-0.7,0-1.5-0.9-1.5-1.6c0-0.7,0.8-1.6,1.6-1.6C35.7,26.5,36.3,27.1,36.3,28.2
			z"/>
	</g>
	<path class="st1" d="M23.9,14.5c0.2,1.6,0.1,1.7-1.4,1.7c-6,0-11.9,0-17.9,0c-0.3,0-0.7,0.1-0.9-0.1c-0.3-0.3-0.6-0.7-0.8-1.2
		c0-0.1,0.5-0.6,0.8-0.6c6.7,0,13.4,0,20.1,0C23.8,14.4,23.8,14.4,23.9,14.5z"/>
	<path class="st0" d="M26,15.3c0-1.7,0-3.4,0-5c0-0.2,0-0.4-0.1-0.6c0-2.1,0-4.3,0.1-6.4c0.1-2-0.9-2.4-2.4-2.4c-1.5,0-2.9,0-4.4,0
		c0,0,0-0.1,0-0.1c-0.1,0-0.2,0.1-0.3,0.1c-1.7,0-3.3,0-5,0c-0.2,0-0.3,0-0.5,0c-0.2,0-0.3,0-0.5,0c-1.7,0-3.3,0-5,0
		C8,0.8,7.9,0.8,7.8,0.8c0,0,0,0.1,0,0.1c-1.5,0-2.9,0-4.4,0C1.9,0.9,1,1.3,1,3.2c0.1,2.1,0.1,4.3,0.1,6.4C1.1,9.8,1,10,1,10.2
		c0,1.7,0,3.4,0,5c0,0.2,0,0.3,0,0.4c0,0.1,0,0.1,0,0.2c0,1.1,0.2,1.6,1.2,1.9C2.5,17.9,2.7,18,3,18c0,0,0.1,0,0.1,0
		c0.7,0.1,1.4,0,2,0c2.8,0,5.6,0,8.4,0c2.8,0,5.6,0,8.4,0c0.7,0,1.4,0.1,2,0c0,0,0.1,0,0.1,0c0.3,0,0.6-0.1,0.8-0.2
		c1-0.3,1.2-0.8,1.2-1.9c0-0.1,0-0.1,0-0.2C26,15.6,26,15.4,26,15.3z M23.4,16.1C23.4,16.1,23.4,16.1,23.4,16.1
		c-0.3,0.1-0.6,0.1-0.9,0.1c-3,0-6,0-9,0s-6,0-9,0c-0.4,0-0.7,0-0.9,0c0,0,0,0-0.1,0c-0.2-0.2-0.4-0.4-0.6-0.7c0-0.2,0-0.5,0.1-0.8
		c0.1-0.1,0.3-0.2,0.4-0.3c3.2,0,6.4,0,9.6,0c0.1,0,0.2,0,0.3,0c0.1,0,0.2,0,0.3,0c3.2,0,6.4,0,9.6,0c0.1,0,0.3,0.1,0.4,0.3
		c0,0.3,0.1,0.6,0.1,0.8C23.8,15.6,23.6,15.9,23.4,16.1z M4.1,2.7c3.1,0,6.3,0,9.4,0c3.1,0,6.3,0,9.4,0c0.8,0,1.1,0.2,1,1
		c0,2.1,0,4.2,0,6.3c0,0.4-0.1,0.7-0.4,0.8C23.4,11,23.3,11,23.1,11c-3.2,0-6.4,0-9.5,0c-3.2,0-6.4,0-9.5,0c-0.2,0-0.4,0-0.5-0.1
		c-0.3-0.1-0.4-0.4-0.4-0.8c0-2.1,0-4.2,0-6.3C3,3,3.3,2.7,4.1,2.7z"/>
</g>
</svg>
