<?xml version="1.0" encoding="utf-8"?>
<!-- Generator: Adobe Illustrator 24.0.0, SVG Export Plug-In . SVG Version: 6.00 Build 0)  -->
<svg version="1.1" id="Слой_1" xmlns="http://www.w3.org/2000/svg" xmlns:xlink="http://www.w3.org/1999/xlink" x="0px" y="0px"
	 width="134px" height="134px" viewBox="0 0 134 134" style="enable-background:new 0 0 134 134;" xml:space="preserve">
<style type="text/css">
	.st0{fill:#0B2842;}
	.st1{fill:#FFFFFF;}
</style>
<circle class="st0" cx="67.1" cy="66.9" r="65.9"/>
<g>
	<path class="st1" d="M43.4,68.1c0-7.8,0-15.6,0-23.5c0-2.4,0.6-4.4,2.4-6c1.5-1.4,3.3-2,5.2-2c10.9,0,21.8-0.1,32.7,0
		c3.8,0,6.4,2.1,7.5,5.7c0.2,0.7,0.2,1.5,0.2,2.3c0,15.7,0,31.4,0,47.1c0,3.4-1.4,5.8-4.3,7.4c-0.8,0.4-1.8,0.6-2.7,0.6
		c-11.4,0-22.7,0.1-34.1,0c-2.6,0-4.9-1.6-6.2-4.4c-0.6-1.2-0.6-2.5-0.6-3.8C43.4,83.7,43.4,75.9,43.4,68.1z M88.8,68.1
		c0-8-0.1-16,0-23.9c0-2.3-2.2-5.2-5.1-5.1c-4,0.1-8.1,0-12.1,0c-6.9,0-13.9,0-20.8,0c-3,0-5,2.1-5,5c0,16,0,32.1,0,48.1
		c0,1.4,0.6,2.5,1.5,3.5c1.1,1.1,2.5,1.3,3.9,1.3c10.4,0,20.7,0,31.1,0c0.7,0,1.5-0.1,2.2-0.1c2.3,0.1,4.3-2.8,4.3-4.6
		C88.8,84.3,88.8,76.2,88.8,68.1z"/>
	<path class="st1" d="M85.9,53.6c0,2.7,0,5.4,0,8c0,1.5-1,2.7-2.5,2.8c-0.5,0-1,0-1.5,0c-4.8,0-9.6,0.1-14.3,0.1
		c-5.2,0-10.4-0.1-15.6-0.1c-2.3,0-3.2-1-3.2-3.3c0-5.2,0-10.4,0-15.6c0-1.5,1.2-3,2.9-3c10.5,0,20.9,0,31.4,0c1.8,0,2.9,1.2,2.9,3
		C85.9,48.3,85.9,51,85.9,53.6z M83.5,45.2c-0.3,0-0.6,0-0.8,0c-10.2,0-20.4,0-30.5,0c-0.8,0-1,0.3-1,1.1c0,4.9,0,9.8,0,14.7
		c0,0.8,0.3,1.1,1.1,1.1c4.5,0,9,0,13.5,0c1.5,0,6.2,0,6.7,0c3.3,0,6.7,0,10,0c1.3,0,1.3,0,1.3-1.2c0-4.8,0-9.7,0-14.5
		C83.5,45.9,83.5,45.6,83.5,45.2z"/>
	<path class="st1" d="M53.5,87.1c0.7,0,1.5,0,2.2,0c1.1,0,1.9,0.4,2.1,1.5c0.2,1.4,0.1,2.9-0.1,4.4c-0.1,1-1.1,1.4-2,1.4
		c-1.5,0.1-3.1,0.1-4.6,0c-1.4-0.1-2.1-0.8-2.1-2c0-1.1,0-2.3,0-3.4c0-1.1,0.9-2.1,2.1-1.9C51.9,87.2,52.7,87.1,53.5,87.1z"/>
	<path class="st1" d="M81.2,87.1c0.8,0,1.7,0,2.5,0c1,0,1.8,0.5,1.8,1.5c0.1,1.4,0.1,2.8,0,4.2c0,0.9-1.1,1.6-2.1,1.7
		c-1.5,0.1-3.1,0-4.6,0c-1.2,0-2.2-1-2.2-2.3c0-1,0-1.9,0-2.9c0.1-1.3,1-2.2,2.2-2.2C79.7,87.1,80.4,87.1,81.2,87.1z"/>
	<path class="st1" d="M67.4,87.1c0.7,0,1.5,0,2.2,0c1.3,0,2.1,0.7,2.2,2c0.1,1.1,0,2.1,0,3.2c-0.1,1.2-0.9,2.1-2.1,2.1
		c-1.5,0-3.1,0-4.7,0c-1.2,0-2.1-0.9-2.2-2.1c0-1.1,0-2.1,0-3.2c0.1-1.3,0.9-2,2.1-2C65.8,87.1,66.6,87.1,67.4,87.1z"/>
	<path class="st1" d="M53.4,75c-0.9,0-1.9,0-2.8,0c-1-0.1-1.5-0.7-1.6-1.6c-0.1-1.3-0.1-2.6,0-3.9c0.1-1.1,0.8-1.6,1.8-1.6
		c1.6,0,3.3,0,4.9,0c1.1,0,1.9,0.5,2,1.5c0.2,1.4,0.2,2.8,0,4.1c-0.2,1.2-0.9,1.5-2.2,1.6c-0.4,0-0.8,0-1.2,0
		C54.1,75.1,53.8,75.1,53.4,75C53.4,75,53.4,75,53.4,75z"/>
	<path class="st1" d="M53.4,77.5c0.8,0,1.6,0,2.4,0c1.5-0.1,2.1,1,2.2,2.2c0.1,0.9,0,1.9,0,2.8c-0.1,1.4-1,2.3-2.4,2.3
		c-1.5,0-2.9,0-4.4,0c-1.4,0-2.2-0.7-2.2-2c-0.1-1.1-0.1-2.2,0-3.3c0.1-1.3,0.7-1.9,2-1.9C51.8,77.5,52.6,77.5,53.4,77.5
		C53.4,77.5,53.4,77.5,53.4,77.5z"/>
	<path class="st1" d="M81.3,67.8c0.8,0,1.6,0,2.3,0c1.3,0,2,0.6,2,1.9c0.1,1.2,0.1,2.3,0,3.5C85.6,74.3,85,74.9,84,75
		c-1.9,0.1-3.7,0-5.6,0c-0.8,0-1.4-0.5-1.5-1.3c-0.3-1.6-0.6-3.3,0.2-4.9c0.2-0.4,0.9-0.8,1.4-0.9C79.4,67.7,80.3,67.8,81.3,67.8
		C81.3,67.8,81.3,67.8,81.3,67.8z"/>
	<path class="st1" d="M81.2,84.8c-0.7,0-1.5,0-2.2,0c-1,0-1.7-0.4-2-1.3c-0.5-1.6-0.5-3.2,0-4.8c0.3-0.8,0.9-1.1,1.7-1.1
		c1.7,0,3.5,0,5.2,0c1,0,1.7,0.5,1.7,1.5c0.1,1.3,0.1,2.6,0,4c-0.1,1.1-0.9,1.7-2,1.7C82.8,84.8,82,84.8,81.2,84.8z"/>
	<path class="st1" d="M67.3,75c-0.9,0-1.8,0.1-2.7,0c-1.1-0.1-1.7-0.8-1.8-1.9c0-1.1,0-2.1,0-3.2c0.1-1.3,0.8-2,2.1-2
		c1.6,0,3.2,0,4.8,0c1.3,0,2.1,0.8,2.1,2.1c0,0.9,0,1.9,0,2.8c0,1.5-0.8,2.2-2.3,2.3C68.8,75.1,68,75,67.3,75
		C67.3,75,67.3,75,67.3,75z"/>
	<path class="st1" d="M67.4,77.5c0.8,0,1.6,0,2.4,0c1.2,0,1.9,0.6,2,1.8c0.1,1.2,0.1,2.3,0,3.5c-0.1,1.2-1,1.9-2.2,2
		c-1.5,0-3,0-4.6,0c-1.3,0-2.2-0.9-2.2-2.1c0-1.1,0-2.1,0-3.2c0.1-1.2,0.7-1.9,1.9-1.9C65.7,77.5,66.5,77.5,67.4,77.5z"/>
</g>
</svg>
