<?xml version="1.0" encoding="utf-8"?>
<!-- Generator: Adobe Illustrator 24.0.0, SVG Export Plug-In . SVG Version: 6.00 Build 0)  -->
<svg version="1.1" id="Слой_1" xmlns="http://www.w3.org/2000/svg" xmlns:xlink="http://www.w3.org/1999/xlink" x="0px" y="0px"
	 width="134px" height="134px" viewBox="0 0 134 134" style="enable-background:new 0 0 134 134;" xml:space="preserve">
<style type="text/css">
	.st0{fill:#006F3E;}
	.st1{fill:#FFFFFF;}
</style>
<circle class="st0" cx="67.1" cy="66.9" r="65.9"/>
<g>
	<path class="st1" d="M63.3,84.7c-0.6,2.6-3.5,5.2-5.8,5.3c-2.7,0.2-5.9-1.4-7.4-5.3c-1.4,0-2.8,0-4.2,0c-2.3,0-3.5-1.2-3.5-3.5
		c0-2.5,0-5.1,0-8c-1.1,0-2.1,0-3.1,0c-1.2,0-1.9-0.8-1.9-1.9c0-1.2,0.7-1.8,1.9-1.9c0.9-0.1,1.9,0,3,0c0-3.8,0-7.6,0-11.5
		c-2.1,0-4.1,0-6.1,0c-1.6,0-3.1-1.1-2.9-2.2c0.2-1.7,1.4-2,2.9-2c2,0,4.1,0,6.3,0c0-1.2,0-2.3,0-3.3c0-2.2,1.3-3.5,3.5-3.5
		c10.1,0,20.3,0,30.4,0c2.4,0,3.4,1.3,3.3,3.1c-0.1,2.1,0.3,3,2.8,3.6c7.7,1.8,14,6,17.1,13.6c1,2.3,1.1,5,1.3,7.6
		c0.1,1.8-0.4,3.7-0.6,5.6c-0.4,2.6-3.2,4.6-5.9,4.4c-1.3-0.1-1.8,0.5-2.4,1.6c-1.2,2.3-3.2,3.9-5.9,3.7c-2.6-0.1-4.8-1.4-6-4
		c-0.2-0.5-1-1.2-1.6-1.2c-4.5-0.1-8.9-0.1-13.4-0.1C64.6,84.7,64,84.7,63.3,84.7z M97.5,74.3c-4.2,0-8,0-11.9,0
		c-5.1,0.1-8.9-4-8.8-8.8c0.1-4.6,0-9.2,0-13.8c0-0.6-0.1-1.2-0.1-1.9c-10.2,0-20.2,0-30.2,0c-1.6,0-1.4,1-1.5,2.1
		c0,1.1,0.1,1.8,1.5,1.8c3.6-0.1,7.1,0,10.7,0c1.7,0,2.8,1.2,2.2,2.6c-0.3,0.8-1.6,1.5-2.5,1.5c-3.9,0.2-7.9,0.1-11.8,0.1
		c0,3.9,0,7.6,0,11.4c0.5,0,0.8,0.1,1.1,0.1c4.5,0,8.9,0,13.4,0c1.5,0,2.6,0.2,2.6,2.1c0,1.9-1.3,1.7-2.5,1.7c-3.7,0-7.4,0-11.1,0
		c-4.1,0-3.6-0.6-3.7,3.7c0,4.9,0,4.9,5,4.7c1.7-3.4,3.4-4.9,6.7-4.9c2.9,0,5.4,1.8,6.6,5c4.7,0,9.4,0,14.1,0c1.3,0,2.1-0.2,2.8-1.6
		c1.1-2.4,3.4-3.5,6-3.4c2.4,0.1,4.5,1.1,5.4,3.4c0.7,1.8,2,1.8,3.3,1.5c1.4-0.3,2.3-1.3,2.3-2.8C97.5,77.3,97.5,75.9,97.5,74.3z
		 M56.9,85.4c1.6,0.2,2.2-0.8,2.3-2.2c0.1-1.4-1-2.4-2.4-2.4c-1.6,0-2.5,1-2.5,2.4C54.4,84.6,55.3,85.6,56.9,85.4z M88.3,83.4
		c0.1-1.7-0.6-2.6-2.3-2.6c-1.5,0.1-2.3,0.8-2.3,2.4c0,1.6,0.9,2.2,2.4,2.2C87.7,85.5,88.4,84.8,88.3,83.4z"/>
	<path class="st1" d="M56.3,62.1c2.2,0,4.5,0,6.7,0c1.2,0,2.5,0.2,2.3,1.8c-0.1,1.2-1,2.1-2.3,2.1c-4.5,0-9,0-13.5,0
		c-1.4,0-2.3-1-2.3-2c-0.1-1.2,1-1.9,2.4-1.9C51.8,62.1,54.1,62.1,56.3,62.1z"/>
</g>
</svg>
