<?xml version="1.0" encoding="utf-8"?>
<!-- Generator: Adobe Illustrator 24.0.0, SVG Export Plug-In . SVG Version: 6.00 Build 0)  -->
<svg version="1.1" id="Слой_1" xmlns="http://www.w3.org/2000/svg" xmlns:xlink="http://www.w3.org/1999/xlink" x="0px" y="0px"
	 width="134px" height="134px" viewBox="0 0 134 134" style="enable-background:new 0 0 134 134;" xml:space="preserve">
<style type="text/css">
	.st0{fill:#006F3E;}
	.st1{fill:#FFFFFF;}
</style>
<circle class="st0" cx="67.1" cy="66.9" r="65.9"/>
<g>
	<path class="st1" d="M35.3,76.1c-0.4-2.5,1.2-4.1,2.4-5.8c1.3-1.8,1.7-3.3,0.4-5.1c-0.9-1.3-1.7-2.8-2.4-4.2
		c-1.1-1.9-0.4-4.7,1.5-5.9c1.9-1.1,4-2,6-2.9c1.3-0.5,1.8-1.4,2-2.7c0.3-2,0.5-4.1,1-6.1c0.6-2.5,2.3-3.6,4.8-3.3
		c1.7,0.2,3.4,0.7,5.1,1c2.2,0.5,3.9-0.2,5.3-2c1.3-1.7,2.5-3.4,4.7-4.1c1.6-0.5,3.4-0.3,4.6,0.9c1.5,1.5,2.8,3.1,4.3,4.6
		c0.4,0.4,1.2,0.9,1.7,0.9c1.5-0.1,3-0.2,4.5-0.7c2.7-0.9,5.8-0.1,7.1,2.3c0.3,0.6,0.5,1.4,0.5,2.2c0.2,2,0.1,4,0.6,5.9
		c0.2,0.8,1.5,1.5,2.4,2c1.8,1.1,3.8,1.9,5.5,3.1c1.7,1.2,2,3.1,1.3,5c-0.6,1.5-1.3,2.9-2.2,4.2c-1.9,2.6-1.9,3.4-0.2,6.1
		c0.9,1.4,1.7,2.8,2.2,4.3c0.9,2.3-0.7,5.1-3.3,6.1c-1.6,0.7-3.3,1.3-4.9,2c-1.7,0.9-1.3,2.7-1.6,4.2c-0.4,1.9-0.5,4-1.4,5.7
		c-1.5,2.8-4.7,2.2-7.5,1.5c-4.7-1.1-4.4-1.6-7.6,2.2c-1,1.2-2.1,2.3-3.4,3.1c-1.8,1.2-4.5,0.4-6.2-1.6c-1.1-1.3-2.1-2.6-3.3-3.8
		c-0.6-0.6-1.7-1-2.5-1c-1.6,0.1-3.2,0.4-4.8,0.9c-2.9,1-6.6-1.1-6.6-4.5c0-1.8-0.4-3.6-0.6-5.3c-0.2-1.3-0.9-2.1-2.2-2.7
		C40.6,82,38.9,81,37.1,80C35.5,79.2,35,77.8,35.3,76.1z M66.6,98.4c1.2-1.4,2.3-2.7,3.5-4c2.1-2.4,4.5-4.1,7.9-3.2
		c1.6,0.4,3.2,0.7,4.7,1.1c1,0.2,1.6-0.2,1.8-1.1c0.2-1,0.2-2.1,0.4-3.2c0.5-4.4,1.2-6.3,6-8.1c4.2-1.5,5-1.5,2.9-5.7
		c-0.1-0.2-0.3-0.3-0.4-0.5c-2.6-3.6-2.6-7.1,0.2-10.6c0.6-0.7,1-1.5,1.4-2.4c0.5-1.2,0.2-2.2-1.1-2.8c-1.4-0.6-2.8-1.2-4.2-1.8
		c-1.7-0.8-3.3-2.1-3.7-4c-0.4-2-0.6-4-0.7-6c-0.1-1.3-0.4-2.1-1.9-1.9c-1.1,0.2-2.3,0.2-3.4,0.5c-2.8,0.8-5.5,0.8-7.7-1.5
		c-1-1-1.8-2.2-2.8-3.2c-2.1-2.3-2.2-2.3-4.3-0.1c-0.5,0.5-0.8,1-1.2,1.5c-1.9,2.3-4.2,4-7.4,3.5c-1.7-0.3-3.5-0.8-5.2-1.3
		c-1.3-0.4-2.2,0.2-2.3,1.6c-0.1,1.5-0.1,3-0.4,4.4c-0.5,2.5-1.3,4.8-4.1,5.7c-1.5,0.5-2.8,1.3-4.3,1.9c-1.3,0.6-2,1.3-1.2,2.8
		c0.4,0.8,0.9,1.6,1.3,2.4c1.8,2.9,2.8,5.9,0.6,9.1c-0.6,0.9-1.2,1.7-1.7,2.6c-1.2,2-1.3,2.9,0,3.7c0.9,0.5,2,0.8,2.9,1.3
		c1.9,1,4.3,1.6,5,4c0.5,1.5,0.7,3.1,0.8,4.7c0.2,4.3,1.1,4.8,4.9,3.7c3.4-1,6.7-1.3,9.2,2.3C63.4,95.3,64.9,96.6,66.6,98.4z"/>
	<path class="st1" d="M78.5,77.3c-0.6-0.4-1.4-0.7-1.8-1.2c-0.2-0.2,0.2-1.1,0.5-1.5c0.3-0.3,0.9-0.3,1.4-0.2c1,0.1,1.5-0.3,1.6-1.3
		c-0.8-0.3-1.7-0.5-2.2-1c-0.3-0.3-0.1-1.2-0.1-1.9c3.2-0.2,3.2-0.2,3.3-2.2c-0.9-0.4-2.5,0.4-2.4-1.6c0.2-2.2,1.9-0.8,2.8-1.4
		c0.6-2.5,0.3-2.8-2.3-2.8c-3.1,0-6.2,0-9.2,0c-0.9-1.5-0.8-2.5,1.1-2.8c0.2,0,0.6-0.3,0.6-0.4c0.1-2.3,1.5-4.6,0.4-7
		c-0.2-0.4-0.7-0.7-1-1c-0.3,0.3-0.8,0.6-1,1.1C69.6,54,69,56.2,68,58.2c-0.9,1.8-2.5,3.3-4.6,3.9c-0.6,0.2-1.3-0.3-2-0.5
		c0.2-0.7,0.3-1.7,0.8-1.9c3.6-1.6,4.7-4.7,5.2-8.2c0.3-2.1,1.7-3.3,3.6-3.4c1.9-0.1,3.1,0.8,4,2.8c0.9,1.9,0.6,3.7,0.3,5.6
		c-0.2,0.9-0.3,1.8-0.5,3c2.5,0,4.7-0.2,6.9,0c2.9,0.3,4.2,4.2,2.5,6.6c-0.1,0.1-0.2,0.2-0.3,0.4c-0.4,2.3-0.7,4.5-1,6.8
		c0,0.1,0,0.1,0,0.2c-0.4,2-1.4,3.8-1.6,5.8c-0.2,1.5-1.9,2-3.4,2c-5.3,0-10.6,0-15.9,0c-1,0-2.3-0.2-2.3-1.5c0-1.3,1.1-1.5,2.3-1.5
		c5.2,0,10.4,0,15.5,0C78.4,78.3,79.3,78.5,78.5,77.3z"/>
	<path class="st1" d="M53.8,59.4c0.9,0,1.9,0,2.8,0c1.5,0,2.1,0.9,2.1,2.4c0,3.9,0.1,7.8,0.1,11.7c0,2.1,0.1,4.2-0.2,6.3
		c-0.1,0.6-1.1,1.4-1.8,1.5c-1.9,0.2-3.8,0.1-5.8,0c-1.2,0-1.8-0.6-1.8-2c0.1-5.9,0-11.8,0-17.7c0-2,0.2-2.3,2.3-2.3
		C52.2,59.4,53,59.4,53.8,59.4z M54.9,76c-0.5,0.6-1,1.1-1,1.4c0.1,0.5,0.6,1,1,1.4c0.4-0.4,1-0.8,1.2-1.4
		C56.1,77.1,55.4,76.7,54.9,76z"/>
</g>
</svg>
