<?xml version="1.0" encoding="utf-8"?>
<!-- Generator: Adobe Illustrator 24.0.0, SVG Export Plug-In . SVG Version: 6.00 Build 0)  -->
<svg version="1.1" id="Слой_1" xmlns="http://www.w3.org/2000/svg" xmlns:xlink="http://www.w3.org/1999/xlink" x="0px" y="0px"
	 width="134px" height="134px" viewBox="0 0 134 134" style="enable-background:new 0 0 134 134;" xml:space="preserve">
<style type="text/css">
	.st0{fill:#0B2842;}
	.st1{fill:#FFFFFF;}
</style>
<circle class="st0" cx="67.1" cy="66.9" r="65.9"/>
<g>
	<path class="st1" d="M54.9,37.9c0-0.4,0-0.8,0-1.1c0-0.6,0.2-1.2,0.7-1.6c0.3-0.3,0.7-0.4,1.1-0.4c0.9,0,1.7,0,2.6,0
		c0.2,0,0.3-0.1,0.4-0.3c0.1-0.5,0.3-1,0.5-1.5c0.4-0.9,1.1-1.5,1.9-2c0.7-0.4,1.4-0.6,2.2-0.7c1.7-0.2,3.2,0.4,4.4,1.6
		c0.7,0.7,1.2,1.5,1.4,2.4c0.1,0.5,0.3,0.5,0.7,0.5c0.8,0,1.5,0,2.3,0c1,0,1.8,0.8,1.8,1.8c0,0.3,0,0.6,0,0.9c0,0.4,0.1,0.5,0.4,0.5
		c2.2,0,4.3,0,6.5,0c0.7,0,1.4,0.1,2.1,0.4c1,0.4,1.7,1.1,2.2,2c0.7,1.2,0.8,2.4,0.7,3.8c-0.1,0.7,0,1.3,0,2c0,7.3,0,14.5,0,21.8
		c0,1.1-0.5,1.6-1.4,1.8c-0.7,0.2-1.8-0.5-1.8-1.4c0-3.2,0-6.4,0-9.5c0-2.9,0-5.8,0-8.7c0-0.5-0.1-0.9-0.1-1.4
		c0-0.4,0.1-0.9,0.1-1.3c0-1.3,0-2.6,0-3.9c0-0.4,0-0.8-0.1-1.2c-0.1-0.5-0.7-1.1-1.2-1.1c-2.4,0-4.9,0-7.4,0c0,0-0.1,0-0.1,0
		c0,0.5,0,1,0,1.5c0,0.8-0.3,1.3-1,1.6c-0.1,0.1-0.3,0.1-0.5,0.1c-5.6,0-11.2,0-16.9,0c-0.7,0-1.3-0.5-1.4-1.2
		c-0.1-0.7-0.2-1.3-0.2-2.1c-0.1,0-0.2,0-0.4,0c-2.2,0-4.4,0-6.6,0c-0.8,0-1.7,0.7-1.7,1.7c0,1.5,0,2.9,0,4.4c0,0.8,0,1.5,0,2.3
		c0,6.9,0,13.7,0,20.6c0,3.7,0,7.4,0,11.1c0,1.1,0,2.2,0,3.2c0,0.9,0.3,1.5,1.2,1.8c0.1,0.1,0.3,0.1,0.5,0.1c4.7,0,9.4,0,14.1,0
		c0.8,0,1.4,0.3,1.6,1c0.3,0.7,0,1.7-0.8,2c-0.3,0.1-0.5,0.2-0.8,0.2c-4.8,0-9.5,0-14.3,0c-1.3,0-2.4-0.5-3.3-1.4
		c-0.6-0.6-1.1-1.3-1.2-2.2c-0.1-0.6-0.2-1.3-0.2-1.9c0-13.8,0-27.6,0-41.3c0-1.8,0.9-3.2,2.3-4.2c0.7-0.5,1.6-0.7,2.5-0.7
		c2.2,0,4.4,0,6.6,0C54.6,37.9,54.7,37.9,54.9,37.9z M66.6,35.1c0-1.1-0.8-1.7-1.7-1.7c-0.9,0-1.7,0.7-1.8,1.7c0,1,0.8,1.8,1.8,1.8
		C65.9,36.9,66.6,36.2,66.6,35.1z"/>
	<path class="st1" d="M77.3,96.3c-0.5,0-1-0.3-1.3-0.6c-0.7-0.7-1.5-1.2-2.6-1.3c-0.5,0-1,0.1-1.5,0.2c-1,0.1-1.5-0.1-2-1.1
		c-0.2-0.5-0.4-1-0.7-1.5c-0.4-0.8-1.1-1.2-1.9-1.4c-0.6-0.2-1.3-0.4-1.5-1c-0.2-0.4-0.4-0.8-0.2-1.4c0.2-0.6,0.1-1.4,0.1-2
		c-0.1-0.8-0.6-1.4-1.1-1.9c-0.6-0.7-0.8-1.6-0.1-2.5c0.4-0.5,0.9-1,1.1-1.6c0.1-0.2,0.2-0.4,0.2-0.6c0-0.7-0.1-1.5-0.2-2.2
		c0-0.5,0.1-1,0.5-1.4c0.4-0.4,1-0.6,1.5-0.8c0.9-0.3,1.5-0.9,1.9-1.8c0.2-0.5,0.4-1,0.6-1.4c0.4-0.8,1.2-0.9,1.9-0.8
		c0.3,0.1,0.7,0.2,1,0.2c1.1,0.1,2-0.4,2.8-1.1c0.4-0.4,0.9-0.7,1.4-0.6c0.4,0,0.7,0.2,1.1,0.4c0.5,0.3,0.9,0.7,1.4,1
		c0.7,0.4,1.5,0.5,2.2,0.2c0.9-0.4,2,0,2.5,0.9c0.2,0.5,0.4,1,0.6,1.5c0.4,0.7,1,1.3,1.9,1.6c0.7,0.2,1.4,0.4,1.7,1.2
		c0.3,0.5,0.2,1.1,0.1,1.6c-0.2,1-0.2,1.9,0.5,2.8c0.2,0.3,0.4,0.5,0.6,0.8c0.9,1.1,0.8,1.8-0.1,2.9c-0.8,0.9-1.1,1.9-1,3
		c0,0.3,0.1,0.6,0.2,0.8c0.2,0.9-0.4,1.8-1.3,2.1c-1.4,0.4-2.4,1.3-2.8,2.7c-0.2,0.5-0.4,1.1-0.9,1.3c-0.2,0.1-0.4,0.2-0.6,0.2
		c-0.6,0-1.3-0.2-1.9-0.2c-0.6,0-1.3,0.1-1.8,0.5c-0.4,0.3-0.8,0.7-1.3,1C77.9,96,77.6,96.1,77.3,96.3z M86.4,82.9
		c0-2.3-0.8-4.9-3.2-7.1c-1.4-1.2-3.1-1.9-4.9-2.1c-3.2-0.3-5.9,0.8-8.1,3.3c-1.4,1.7-2.1,3.7-2.1,5.9c0,2.4,0.8,4.6,2.5,6.3
		c1.7,1.8,3.7,2.7,6.1,2.9C82.4,92.3,86.4,87.8,86.4,82.9z"/>
	<path class="st1" d="M68.9,94c0.2,0.2,0.3,0.4,0.5,0.6c0.8,0.9,1.7,1.3,3,1c1-0.3,2-0.1,2.8,0.7c0.4,0.3,0.8,0.6,1.3,0.9
		c0.1,0.1,0.2,0.2,0.1,0.3c-0.4,1.1-0.9,2.2-1.3,3.4c-0.3,0.7-0.5,1.5-0.7,2.2c-0.2,0.6-0.4,1.1-0.6,1.7c-0.3,0.1-0.4-0.3-0.5-0.5
		c-0.5-0.6-0.9-1.2-1.3-1.8c-0.3-0.5-0.7-0.9-1-1.4c-0.2-0.3-0.5-0.2-0.7-0.2c-0.8,0.2-1.6,0.4-2.4,0.7c-0.4,0.1-0.7,0.2-1.1,0.3
		c-0.2,0.1-0.5,0.1-0.8,0.2C67,99.2,67.9,96.7,68.9,94z"/>
	<path class="st1" d="M88.3,101.9c-0.4-0.1-0.7-0.2-0.9-0.2c-0.3-0.1-0.6-0.1-0.9-0.2c-1-0.3-1.9-0.5-2.9-0.8c-0.1,0-0.2,0-0.3,0.1
		c-0.5,0.8-1.1,1.5-1.6,2.3c-0.4,0.5-0.8,1.1-1.2,1.7c-0.1-0.3-0.2-0.5-0.3-0.7c-0.3-0.8-0.5-1.6-0.8-2.3c-0.4-1.2-0.9-2.3-1.3-3.5
		c-0.1-0.3-0.2-0.6-0.3-0.8c0-0.1,0.1-0.2,0.1-0.2c0.7-0.1,1.2-0.5,1.6-1c0.7-0.7,1.5-0.8,2.2-0.6c0.9,0.3,1.8,0.2,2.6-0.2
		c0.3-0.2,0.5-0.5,0.8-0.8c0.1-0.1,0.1-0.2,0.2-0.3C86.4,96.8,87.3,99.2,88.3,101.9z"/>
	<path class="st1" d="M51.7,75.6c0.7,0,1,0.4,1.5,0.8c0.4,0.3,0.7,0.6,1.1,0.9c0.1,0,0.2,0,0.3,0c1.4-1.3,2.7-2.6,4.1-3.9
		c0.3-0.3,1-0.4,1.3-0.3c0.5,0.3,0.8,0.6,0.9,1.2c0,0.7-0.4,1-0.8,1.4c-1.4,1.4-2.8,2.7-4.2,4.1c-0.3,0.3-0.7,0.5-1.1,0.7
		c-0.5,0.3-0.9,0-1.3-0.3c-0.9-0.7-1.8-1.5-2.7-2.3c-0.5-0.4-0.6-1.4-0.2-1.8C50.9,75.8,51.3,75.6,51.7,75.6z"/>
	<path class="st1" d="M60.8,62.8c0.1,0.5-0.2,0.8-0.5,1.1c-0.7,0.7-1.3,1.3-2,1.9c-1,0.9-1.9,1.9-2.9,2.8c-0.4,0.4-1.3,0.4-1.7,0.1
		c-0.5-0.4-1-0.8-1.5-1.2c-0.5-0.4-1-0.8-1.5-1.2c-0.6-0.5-0.7-1.2-0.2-1.9c0.4-0.5,1.1-0.7,1.7-0.3c0.6,0.5,1.3,1,1.9,1.5
		c0.2,0.1,0.2,0.1,0.3,0c1.1-1.1,2.1-2.1,3.2-3.2c0.3-0.3,0.7-0.6,1.1-0.9c0.4-0.3,0.8-0.3,1.2-0.1C60.5,61.8,60.9,62.2,60.8,62.8z"
		/>
	<path class="st1" d="M60.8,51.3c0.1,0.5-0.3,0.9-0.6,1.2c-1.3,1.3-2.7,2.6-4,3.9c-0.3,0.3-0.5,0.6-0.8,0.8
		c-0.7,0.5-1.3,0.4-2.1-0.3c-0.8-0.7-1.6-1.4-2.4-2c-0.3-0.3-0.6-1-0.4-1.4c0.2-0.4,0.5-0.8,1-0.9c0.7-0.2,1.1,0.2,1.6,0.6
		c0.4,0.3,0.7,0.7,1.1,1c0.2,0.1,0.3,0.2,0.6,0c1.3-1.3,2.6-2.6,3.9-3.8c0.4-0.4,1-0.4,1.5-0.3C60.5,50.2,60.8,50.7,60.8,51.3z"/>
	<path class="st1" d="M72.5,64.3c1.9,0,3.8,0,5.7,0c0.5,0,1.1,0.4,1.2,0.8c0.1,0.5,0,1.1-0.5,1.4c-0.2,0.1-0.5,0.2-0.7,0.2
		c-1.7,0-3.3,0-5,0c-1.6,0-3.2,0-4.8,0c-0.4,0-0.8,0.1-1.2,0.1c-0.5,0-0.9,0-1.3-0.5c-0.2-0.3-0.4-0.5-0.3-0.8
		c0-0.6,0.7-1.1,1.2-1.1C68.7,64.3,70.6,64.3,72.5,64.3z"/>
	<path class="st1" d="M72.5,52.8c1.9,0,3.8,0,5.7,0c0.5,0,0.9,0.3,1.1,0.7c0.2,0.4,0,1-0.3,1.3c-0.2,0.2-0.5,0.3-0.8,0.3
		c-3.8,0-7.6,0-11.4,0c-0.6,0-1.2-0.6-1.2-1.2c0-0.5,0.6-1.1,1.2-1.1C68.7,52.8,70.6,52.8,72.5,52.8z"/>
	<path class="st1" d="M77.3,74.9c4.2-0.1,8.2,3.6,7.9,8.4c-0.2,4.2-3.5,7.6-7.9,7.6c-4.5,0-8.1-3.5-8-8.3
		C69.4,78.6,72.7,74.8,77.3,74.9z M74,81.6c-0.4,0.5-0.8,0.9-1.2,1.3c-0.2,0.2-0.2,0.3,0,0.5c1.1,1.1,2.1,2.2,3.2,3.3
		c0.3,0.3,0.4,0.2,0.6,0c1-1,1.9-2,2.9-3c0.8-0.8,1.6-1.6,2.4-2.4c-0.4-0.5-0.9-0.9-1.2-1.3c-0.2-0.3-0.4-0.2-0.6,0
		c-1.1,1.1-2.2,2.3-3.3,3.4c-0.4,0.5-0.5,0.5-0.9,0C75.3,82.8,74.7,82.2,74,81.6z"/>
</g>
</svg>
