<?xml version="1.0" encoding="utf-8"?>
<!-- Generator: Adobe Illustrator 24.0.0, SVG Export Plug-In . SVG Version: 6.00 Build 0)  -->
<svg version="1.1" id="Слой_1" xmlns="http://www.w3.org/2000/svg" xmlns:xlink="http://www.w3.org/1999/xlink" x="0px" y="0px"
	 width="134px" height="134px" viewBox="0 0 134 134" style="enable-background:new 0 0 134 134;" xml:space="preserve">
<style type="text/css">
	.st0{fill:#0B2842;}
	.st1{fill:#FFFFFF;}
</style>
<circle class="st0" cx="67.1" cy="66.9" r="65.9"/>
<g>
	<path class="st1" d="M38.6,54.8c0-1.7,0-4.2,0-6.8c0-1.9,1.2-2.7,2.9-2.1c4.8,1.6,9.6,1.1,14.2-0.8c3.3-1.3,6.3-3.3,9.5-4.8
		c0.7-0.3,1.7-0.3,2.4,0c3.7,1.6,7.1,3.7,10.9,5.1c4.1,1.6,8.4,1.9,12.8,1.2c0.4-0.1,0.9-0.3,1.3-0.5c1.4-0.8,3-0.1,2.9,1.6
		c-0.1,6.1,0.1,12.3-0.5,18.4c-0.6,6.2-2.3,12.2-5.6,17.7c-3.1,5.1-6.9,9.5-12.1,12.5c-2.8,1.7-5.9,3.1-8.8,4.7c-1.8,1-3-0.3-4.4-1
		c-5.4-2.5-10.3-5.9-14.4-10.2c-4.4-4.6-7.5-9.9-9.2-16.2C39,67.8,38.4,61.8,38.6,54.8z M91.9,50.6c-2.4,0-4.6,0.2-6.7,0
		c-2.2-0.2-4.5-0.5-6.5-1.2c-3.6-1.3-7.1-3-10.7-4.7c-1-0.5-1.8-0.6-2.8,0.1c-6.9,4.4-14.3,6.8-22.6,5.6c-0.1,0.1-0.2,0.2-0.2,0.3
		c-0.1,0.3-0.1,0.7-0.1,1C42,59.3,42.3,67,44.6,74.4c1.1,3.4,2.7,6.6,4.8,9.5c3.9,5.3,9.2,9.2,14.9,12.2c1.2,0.6,2.4,2,4.1,1
		c3.3-2,6.8-3.7,9.8-6c6.4-4.9,10.2-11.7,12-19.4c1.1-4.8,1.2-9.7,1.6-14.6C92,54.8,91.9,52.5,91.9,50.6z"/>
	<path class="st1" d="M51,69.4c-0.4-8.6,7.6-16.9,17.1-16.6c8.3,0.3,16,7.5,16,16.7c-0.1,8.8-7.7,16.6-16.9,16.4
		C58.7,85.9,50.7,78.5,51,69.4z M66.4,71.5c-1.4-1.5-2.8-2.9-4-4.4c-0.9-1.1-1.9-1-2.9-0.6c-0.9,0.4-0.8,2.3,0,3.2
		c1.7,1.9,3.3,3.8,5,5.7c1.4,1.5,2.8,1.4,4-0.1c1.3-1.7,2.6-3.4,3.9-5.1c1.3-1.7,2.6-3.3,3.7-5c0.7-1,0.3-1.9-0.7-2.7
		c-1-0.8-1.7-0.1-2.3,0.5c-0.5,0.6-1,1.2-1.5,1.8C69.9,67.1,68.2,69.3,66.4,71.5z"/>
</g>
</svg>
