<?xml version="1.0" encoding="utf-8"?>
<!-- Generator: Adobe Illustrator 24.0.0, SVG Export Plug-In . SVG Version: 6.00 Build 0)  -->
<svg version="1.1" id="Слой_1" xmlns="http://www.w3.org/2000/svg" xmlns:xlink="http://www.w3.org/1999/xlink" x="0px" y="0px"
	 width="30px" height="92px" viewBox="0 0 30 92" style="enable-background:new 0 0 30 92;" xml:space="preserve">
<style type="text/css">
	.st0{fill:#E3A86E;}
	.st1{clip-path:url(#SVGID_2_);}
	.st2{fill:#26663A;}
	.st3{clip-path:url(#SVGID_4_);}
	.st4{fill:#2D3D56;}
	.st5{fill:#4A1F21;}
</style>
<g>
	<path class="st0" d="M27.3,36.1c-1.5-0.1-3-0.5-3-0.5v2c0,0-0.1,3.1,0.1,4c0.2,0.8,0.3,2.4,0.3,2.4l-0.5,4.5
		c1.8-2.8,2.9-6.9,2.8-8.6C27,38.1,27.3,36.1,27.3,36.1z M7,35.5c-0.2-2.3-1.2-2.4-1.2-2.4c-1.4-0.5-4,1.2-4,1.2
		c-0.9,0.5,4.9,8.4,4.9,8.4l0.1,2.9c0,0,0,0,1-0.4c1-0.4,2.1-2.2,2.1-2.2l-1.7-2.4C8.3,40.5,7.2,37.8,7,35.5z M19.1,14.3
		c0.2,0.4-2.2,4.9-2.4,6.5c0,0-2-1.4-2.6-2c-0.6-0.6-1.2-1.4-1-2.4c0.2-1,0.6-2.9,0.6-2.9s-1.3,0.1-1.6-0.1c-0.2-0.2-1.3-0.4-1.7-3
		C10,7.8,9.9,4.6,9.9,4.6s4.2-1.3,6-0.9c0,0,0,3.3,1,3.7c0,0,0.3-1.9,1.1-1.6c0.8,0.3,1.1,2.1-0.3,3.3C17.6,9.2,18.9,13.9,19.1,14.3
		"/>
	<g>
		<defs>
			<rect id="SVGID_1_" x="1" y="13.8" width="27.5" height="31.5"/>
		</defs>
		<clipPath id="SVGID_2_">
			<use xlink:href="#SVGID_1_"  style="overflow:visible;"/>
		</clipPath>
		<g class="st1">
			<path class="st2" d="M13.4,17.3c0.1,0.4,3.3,3.6,3.3,3.6C16.6,20.1,19,14,19,14s0.7,0.1,1.4,0.3c0.7,0.2,0.9,1.4,0.9,1.4
				s4.4,3.4,5.7,5.2c1.3,1.8,1.5,3.6,1.5,3.6c-0.1,0.9-0.6,7.8-0.8,9c-0.2,1.2,1.5,1.9,0.4,2.5c-1.1,0.6-3.9-0.4-3.9-0.4v5L23.7,40
				c-0.5,0.6-1.5,0.3-3.1,0.3c-1.6,0-3.2,0.8-4,2.1c-0.8,1.2-0.6,2.3-3.4,2.8C8.9,46,10,42.9,10,42.9l-1.7-2.4c0,0,0.3-2,0.6-4.4
				S9,27.2,9,27.2S7.5,31,7.4,32c-0.1,1,0.2,2.2-0.8,1.8c-1-0.4-3.5-0.2-4.8,0.7c-1.4,1-0.3-2.2,0-2.5c0.3-0.3,0.8-6.2,1.5-9.2
				s1.2-2.9,1.7-3.4c0.5-0.5,6.3-3.9,6.3-3.9s0.8-1.5,1.2-1.6c0.4,0,1.1-0.1,1.1-0.1C13.4,15,13.3,16.8,13.4,17.3"/>
		</g>
	</g>
	<g>
		<defs>
			<rect id="SVGID_3_" x="6" y="16" width="19.7" height="75.2"/>
		</defs>
		<clipPath id="SVGID_4_">
			<use xlink:href="#SVGID_3_"  style="overflow:visible;"/>
		</clipPath>
		<g class="st3">
			<path class="st4" d="M17.7,36.2c0.1-2.1,0.1-4.2,0-6.4c0-0.2-0.7,0-0.7,0.2c0.2,2.1,0.2,4.2,0,6.3C17,36.6,17.7,36.4,17.7,36.2z
				 M17,27.7c0,0.2,0.7,0.1,0.7-0.2c-0.1-2,0-4,0.4-6c0,0,0,0,0,0c0.4-0.3,0.8-0.6,1.2-0.9c0.5-0.3,1-0.5,1.4-0.8
				c0.2-0.1,0.4-0.3,0.6-0.5c0.2-0.2,0.4-0.4,0.4-0.6c0-0.3-0.1-0.6-0.2-0.8c0-0.3,0-0.6,0-0.9c0.1-0.3-0.7-0.3-0.7,0.1
				c0,0.3-0.1,0.5,0,0.8c0,0.3,0.1,0.5,0.1,0.8c0.1,0.4-0.6,0.8-0.9,0.9c-0.9,0.5-1.8,1-2.6,1.7c-0.1,0.1-0.2,0.2-0.1,0.3
				c0,0,0,0,0,0C17,23.6,16.9,25.7,17,27.7z M11.7,20.3c-0.1,0.1,0.1,0.1,0.2,0.1c0,0,0,0,0,0c0,0,0.1,0,0.1,0c0,0,0,0,0,0
				c0,0,0,0,0.1,0c0,0,0.1,0,0.1,0c0.2,0,0.4,0.1,0.6,0.1c0.2,0,0.3,0.1,0.5,0.1c0.2,0,0.5,0,0.7-0.1c0.1,0,0.2-0.1,0.1-0.2
				c0-0.1-0.1-0.1-0.2-0.1c0,0-0.1,0-0.2,0c-0.1,0-0.2,0-0.3,0.1c0,0,0,0,0,0c-0.3-0.1-0.5-0.1-0.8-0.2c-0.2,0-0.4-0.1-0.6,0
				C12,20.1,11.8,20.1,11.7,20.3z M12,19.8c-0.4-0.4-0.3-1.1-0.2-1.6c0.1-0.7,0.3-1.4,0.5-2c0.1-0.1-0.2-0.1-0.3-0.1
				c-0.1,0-0.3,0.1-0.4,0.2c-0.3,0.7-0.4,1.4-0.5,2.2c-0.1,0.5-0.2,1.2,0.3,1.6C11.5,20.2,12.2,20,12,19.8z M25.4,89
				c-1.8,0.2-7.3-3.8-7.3-3.8l-0.1-1l-0.3,0.1l0.1-2.7l-1.3-34.5c0,0-6.4,27.8-7.2,30.7c-0.8,2.9-0.2,8.8-0.2,8.8l-0.3,0
				c1.2,1.2,4.4,4.4,4,4.7C12.3,91.5,6,87.9,6,87.9l0.2-1.6l-0.1,0l0.1-1.1l0.7-39.6c0.3-0.1,3-2.8,3.1-2.7c0.5,0.5,2.2,1.6,2.4,1.6
				c1.4,0.1,2.4-0.2,3.3-1.2c0.6-0.7,0.9-1.5,1.4-2.2c0.6-1,2.8-1.1,2.8-1.1c3.6,0.5,4.5-0.4,4.5-0.4l0,1.1l0.4,2.2l0,0.6l-4.5,39.9
				l-0.3,0.1C21,84.3,27,88.9,25.4,89"/>
		</g>
	</g>
	<path class="st5" d="M17,11.5c-0.1-0.1-0.4-0.1-0.5,0c-0.9,0.6-1.9,1.2-2.9,1.7c-0.1,0.1-0.3,0.2-0.2,0.4c0.1,0.1,0.3,0.1,0.5,0.1
		c1.1-0.5,2.1-1.1,3.1-1.7C17.1,11.8,17.2,11.6,17,11.5z M18.8,4.1c-0.2,1.3-1.1,1.8-1.1,1.8s-0.9,1-0.8,2.2c0,0-0.4,0.2-0.5-0.4
		c-0.2-0.6-0.7-3.8-1.3-3.8c-0.6,0-3.7,0.1-5.1,1c0,0-1.2,0.5-0.9-1.3c0.2-1.8,1.8-3,1.9-2.4c0,0.5-0.2,1.3,0.7,0.8
		c0.9-0.5,1.4-1.3,2.4-1.3c0,0,0.2,0-0.4,0.4c-0.6,0.4,0.2,0.4,0.9,0.2c0.7-0.2,2.9-0.2,3.1,0.3C17.9,2.2,17,2,17.1,2.4
		C17.3,2.7,19,2.9,18.8,4.1"/>
</g>
</svg>
