<?xml version="1.0" encoding="utf-8"?>
<!-- Generator: Adobe Illustrator 24.0.0, SVG Export Plug-In . SVG Version: 6.00 Build 0)  -->
<svg version="1.1" id="Слой_1" xmlns="http://www.w3.org/2000/svg" xmlns:xlink="http://www.w3.org/1999/xlink" x="0px" y="0px"
	 width="28px" height="28px" viewBox="0 0 28 28" style="enable-background:new 0 0 28 28;" xml:space="preserve">
<style type="text/css">
	.st0{fill:#0B2842;stroke:#0B2842;stroke-miterlimit:10;}
	.st1{fill:#FFFFFF;}
</style>
<g>
	<circle class="st0" cx="13.9" cy="14.2" r="12.4"/>
	<g>
		<path class="st1" d="M13.4,7.5c0.4,0.1,0.8,0.1,1.3,0.2c2.4,0.5,4.5,2.7,4.9,5c0.1,0.5,0.1,1.1,0.1,1.6c0,0.2-0.1,0.4-0.3,0.4
			c-0.2,0-0.4-0.1-0.4-0.3c-0.1-0.7-0.2-1.4-0.3-2c-0.6-2.1-2-3.4-4.1-3.8c-0.4-0.1-0.8-0.2-1.2-0.2c-0.2,0-0.4,0-0.5-0.3
			c-0.1-0.3,0.1-0.4,0.3-0.5C13.3,7.5,13.4,7.5,13.4,7.5z"/>
		<path class="st1" d="M19.9,19.1c0,0.2,0,0.3-0.1,0.5c-0.5,1.1-1.2,1.8-2.4,2c-0.3,0.1-0.7,0-1-0.2c-4.7-2-8.1-5.3-10.1-10.1
			C5.7,9.5,6.6,8.2,8.2,7.8c0.4-0.1,0.7,0,1,0.2c0.9,0.8,1.6,1.8,2.1,2.9c0.2,0.4,0.1,0.8-0.2,1.1c-0.1,0.1-0.2,0.2-0.4,0.3
			c-0.6,0.4-0.8,0.9-0.5,1.6c0.5,1.2,1.2,2.1,2.3,2.8c0.4,0.2,0.8,0.5,1.2,0.7c0.6,0.3,1,0.2,1.4-0.4c0.6-0.8,1.3-1,2.1-0.5
			c0.8,0.5,1.5,1.1,2.2,1.6C19.7,18.4,19.9,18.7,19.9,19.1z"/>
		<path class="st1" d="M18.1,13.3c0,0.1,0,0.3,0,0.4c0,0.2-0.1,0.4-0.4,0.4c-0.2,0-0.3-0.1-0.4-0.4c-0.1-0.4-0.1-0.9-0.3-1.3
			c-0.3-1-0.9-1.7-1.9-2c-0.4-0.1-0.9-0.2-1.3-0.3c-0.3-0.1-0.5-0.2-0.4-0.5c0-0.3,0.2-0.4,0.6-0.3c1.2,0.1,2.2,0.6,3,1.5
			C17.7,11.4,18.1,12.3,18.1,13.3z"/>
		<path class="st1" d="M16.5,13c0,0.1,0,0.1,0,0.2c0,0.2-0.1,0.4-0.3,0.4c-0.3,0-0.4-0.1-0.4-0.4c0-0.1,0-0.2-0.1-0.3
			c-0.1-0.7-0.5-1.1-1.2-1.2c-0.1,0-0.2,0-0.3-0.1c-0.1-0.1-0.3-0.2-0.3-0.3c0-0.1,0.1-0.3,0.2-0.4c0.2-0.1,0.4-0.1,0.6,0
			C15.6,11.1,16.5,12.1,16.5,13z"/>
	</g>
</g>
</svg>
