<?xml version="1.0" encoding="utf-8"?>
<!-- Generator: Adobe Illustrator 24.0.0, SVG Export Plug-In . SVG Version: 6.00 Build 0)  -->
<svg version="1.1" id="Слой_1" xmlns="http://www.w3.org/2000/svg" xmlns:xlink="http://www.w3.org/1999/xlink" x="0px" y="0px"
	 width="21px" height="21px" viewBox="0 0 21 21" style="enable-background:new 0 0 21 21;" xml:space="preserve">
<style type="text/css">
	.st0{fill:#C0E1D2;}
</style>
<g>
	<path class="st0" d="M10.5,19.9c-5.1-0.1-9.2-4.3-9.3-9.3C1.1,5.2,5.5,0.8,10.9,1c5.1,0.1,9.4,4.4,9.3,9.7
		C20.1,15.8,15.8,20,10.5,19.9z M10.7,2.5c-4.4,0-7.9,3.5-7.9,8c0,4.3,3.6,8,8.1,7.9c4.2-0.1,7.6-3.5,7.7-7.7
		C18.7,6.1,15.1,2.5,10.7,2.5z"/>
	<path class="st0" d="M8.5,13.8c0.5,0.4,0.9,0.9,1.4,1.4c-1.4,0-2.7,0-4,0c0-1.3,0-2.6,0-3.9c0.5,0.5,0.9,0.9,1.4,1.4
		c1.9-1.9,3.7-3.7,5.6-5.6c-0.4-0.4-0.9-0.9-1.4-1.3c0,0,0,0,0,0c1.3,0,2.6,0,3.9,0c0,1.3,0,2.6,0,3.9c-0.5-0.5-0.9-0.9-1.4-1.4
		C12.2,10.1,10.3,11.9,8.5,13.8z"/>
</g>
</svg>
