<?xml version="1.0" encoding="utf-8"?>
<!-- Generator: Adobe Illustrator 24.0.0, SVG Export Plug-In . SVG Version: 6.00 Build 0)  -->
<svg version="1.1" id="Слой_1" xmlns="http://www.w3.org/2000/svg" xmlns:xlink="http://www.w3.org/1999/xlink" x="0px" y="0px"
	 width="15px" height="15px" viewBox="0 0 15 15" style="enable-background:new 0 0 15 15;" xml:space="preserve">
<style type="text/css">
	.st0{fill:#072216;}
	.st1{fill:#92BCA9;stroke:#92BCA9;stroke-width:0.75;stroke-miterlimit:10;}
</style>
<g>
	<circle class="st0" cx="7.6" cy="7.3" r="6.4"/>
	<path class="st1" d="M6.9,9.4C6.7,9.4,6.6,9.3,6.5,9.1C6,8.7,5.5,8.2,5.1,7.7C4.9,7.6,4.9,7.3,5,7.2C5.1,7,5.3,6.9,5.5,7
		c0.1,0,0.2,0.1,0.2,0.1c0.4,0.4,0.7,0.7,1.1,1.1c0.1,0.1,0.1,0.1,0.2,0c0.9-0.9,1.8-1.8,2.7-2.7c0.2-0.2,0.5-0.2,0.6,0
		c0.1,0.2,0.2,0.4,0,0.6c-0.7,0.6-1.3,1.3-2,2C7.9,8.5,7.6,8.9,7.2,9.3C7.1,9.3,7,9.4,6.9,9.4C6.9,9.4,6.9,9.4,6.9,9.4z"/>
</g>
</svg>
