<?xml version="1.0" encoding="utf-8"?>
<!-- Generator: Adobe Illustrator 24.0.0, SVG Export Plug-In . SVG Version: 6.00 Build 0)  -->
<svg version="1.1" id="Слой_1" xmlns="http://www.w3.org/2000/svg" xmlns:xlink="http://www.w3.org/1999/xlink" x="0px" y="0px"
	 width="34px" height="34px" viewBox="0 0 34 34" style="enable-background:new 0 0 34 34;" xml:space="preserve">
<style type="text/css">
	.st0{fill:#26503D;}
	.st1{fill:none;stroke:#26503D;stroke-miterlimit:10;}
</style>
<g>
	<g>
		<path class="st0" d="M20.7,17.1c0.6,0,1.3,0,2,0c-0.1-0.2-0.2-0.4-0.3-0.6c-0.3-0.3-0.7-0.5-1-0.8c-1.6-1.6-3.2-3.3-4.9-4.9
			c-1-0.9-1.1-1.9-0.6-2.7c0.5-1,2.1-1.4,2.9-0.5c1.8,1.8,3.6,3.5,5.3,5.3c0.4,0.4,0.8,0.8,1.1,1.3c0.3,0.5,0.6,1.1,0.2,1.8
			c-0.3,0.5-0.7,0.9-0.6,1.6c0,0,0,0.1-0.1,0.2c-0.5,0.5-0.9,1.3-2,1c0,0.9,0,1.8,0,2.6c-0.5,0-0.9,0-1.2,0
			C20.8,20.1,20.3,18.7,20.7,17.1z M17,9.5c0.1,0.2,0.4,0.3,0.6,0.3c0.2,0,0.5-0.2,0.5-0.4c0.2-0.5-0.2-0.8-0.6-1
			C17.1,8.6,16.9,9,17,9.5z M22.8,15.3c0,0.5,0.5,1,1,1c0.5,0,0.9-0.4,1-0.9c0-0.5-0.4-0.9-0.9-0.9C23.2,14.5,22.8,14.8,22.8,15.3z
			 M20.6,11.1c-0.4,0.4-0.7,0.6-0.9,1c-0.1,0.1,0,0.3,0.1,0.4c0.1,0.2,0.3,0.2,0.4,0c0.3-0.3,0.6-0.6,0.7-0.8
			C20.9,11.5,20.8,11.3,20.6,11.1z M21.9,13.2c0.4-0.4,0.4-0.4-0.1-0.8c-0.2,0.2-0.3,0.4-0.5,0.6c-0.4,0.3-0.5,0.6,0,0.9
			C21.5,13.7,21.7,13.5,21.9,13.2z M19,11.1c0.8-0.6,0.8-0.7,0.4-1.3c-0.2,0.2-0.3,0.4-0.5,0.6c-0.2,0.2-0.4,0.3-0.6,0.5
			c0,0.1,0,0.1,0,0.2C18.5,11.1,18.8,11.2,19,11.1z"/>
		<path class="st0" d="M13.3,18.8c0,1.3,0,2.6,0,3.9c0,0.6,0,0.6,0.6,0.6c2.4,0,4.8,0,7.2,0c0.4,0,0.5,0.1,0.5,0.5
			c0,0.3,0,0.6,0,0.9c0.1,0.5-0.1,0.6-0.6,0.6c-4.3,0-8.5,0-12.8,0c-0.2,0-0.3,0-0.5,0c0-2.3,0-4.5,0-6.8c1.9,1.6,3.7,1.7,5.6-0.1
			C13.3,18.6,13.3,18.7,13.3,18.8z M11.2,20.6c-0.7,0-1.4,0-2.2,0c0.1,0.2,0.1,0.4,0.2,0.6c0.8,0,1.7,0,2.6,0
			C11.7,20.8,11.6,20.5,11.2,20.6z M9.2,22.7c0.8,0,1.7,0,2.7,0c-0.2-0.2-0.3-0.5-0.4-0.5c-0.8,0-1.6,0-2.5,0
			C9.1,22.4,9.2,22.5,9.2,22.7z"/>
		<path class="st0" d="M10.5,13.1c1.8,0,3.1,1.3,3.1,3.2c0,1.9-1.5,3.1-3.1,3.1c-1.7,0-3.2-1.5-3.1-3.1C7.3,14.5,8.9,13.1,10.5,13.1
			z M9.1,16.9c0.1-0.1,0.3-0.1,0.5-0.2c-0.2-0.2-0.4-0.4-0.6-0.4c-0.2-0.1-0.4,0.1-0.6,0.1c0.1,0.3,0.1,0.5,0.2,0.8
			C8.8,17,8.9,17,9.1,16.9z M11.1,18.2c0.8-0.3,0.8-0.4,0.1-1.1C10.8,17.4,10.8,17.6,11.1,18.2z M12.4,17c0.1-0.3,0.2-0.5,0.3-0.9
			c-0.4,0-0.7,0.1-1.1,0.1C11.5,16.9,12.1,16.7,12.4,17z M9,15.7c0.1,0.1,0.3,0.1,0.5,0.2c0-0.2,0-0.5-0.1-0.7
			c-0.1-0.2-0.3-0.3-0.5-0.4c-0.1,0.2-0.3,0.4-0.4,0.6C8.7,15.6,8.9,15.7,9,15.7z M10.6,14.2c-0.3,0-0.5,0-0.7,0
			c0,0.7,0.2,0.9,0.7,0.8C10.6,14.7,10.6,14.5,10.6,14.2z M12.1,15.1c0-0.1-0.2-0.4-0.4-0.6c-0.6,0.8-0.7,0.7-0.2,1.1
			C11.7,15.4,12.1,15.3,12.1,15.1z M9.3,17.9c0.3,0.1,0.5,0.2,0.8,0.4c0-0.4,0.1-0.6,0.1-0.9c-0.1-0.1-0.2-0.1-0.4-0.2
			C9.6,17.4,9.5,17.7,9.3,17.9z"/>
		<path class="st0" d="M14,15.6c1.1-1.2,2.2-2.3,3.2-3.3c-0.2-0.2-0.5-0.5-0.6-0.8c-0.2-0.3-0.3-0.3-0.5,0c-0.1,0.1-0.2,0.2-0.4,0.4
			c-0.1-0.1-0.2-0.2-0.3-0.3c-0.5-0.5-0.5-0.5,0.1-0.9c0.1-0.1,0.1-0.3,0.1-0.4c-0.1-0.2-0.2-0.4-0.3-0.7c0-0.2,0-0.4,0-0.8
			c-1.4,1.3-2.6,2.6-4,3.9C12.7,13.2,13.6,14.1,14,15.6z"/>
		<path class="st0" d="M26.8,17.1c-0.6,0-1.1,0-1.7,0c0.3,0.9-0.6,1.1-0.9,1.7c0.2,0,0.4,0,0.6,0.1c0,0.8,0,1.7,0,2.6
			c0.4,0,0.7,0,1,0c0.1,0,0.2-0.1,0.3-0.2C26.9,19.9,27,18.5,26.8,17.1z"/>
		<path class="st0" d="M23.1,15.4c0,0.4,0.3,0.7,0.7,0.7c0.3,0,0.8-0.5,0.8-0.8c0-0.3-0.5-0.7-0.8-0.7C23.4,14.7,23.1,15,23.1,15.4z
			"/>
	</g>
	<circle class="st1" cx="17" cy="17.3" r="15.4"/>
</g>
</svg>
