<?xml version="1.0" encoding="utf-8"?>
<!-- Generator: Adobe Illustrator 24.0.0, SVG Export Plug-In . SVG Version: 6.00 Build 0)  -->
<svg version="1.1" id="Слой_1" xmlns="http://www.w3.org/2000/svg" xmlns:xlink="http://www.w3.org/1999/xlink" x="0px" y="0px"
	 width="34px" height="34px" viewBox="0 0 34 34" style="enable-background:new 0 0 34 34;" xml:space="preserve">
<style type="text/css">
	.st0{fill:none;stroke:#FFFFFF;stroke-miterlimit:10;}
	.st1{fill:#FFFFFF;}
</style>
<g>
	<circle class="st0" cx="17" cy="17.3" r="15.4"/>
	<g>
		<path class="st1" d="M6,13.7c0.1,0,0.1,0,0.1,0c0.6,0,1.3,0,1.9,0c0.2,0,0.2,0.1,0.3,0.2c0.5,0.5,0.9,0.9,1.4,1.4
			c0.4,0.4,0.8,0.8,1.2,1.2c0.3,0.4,0.7,0.7,1,1.1c0.4,0.4,0.7,0.7,1.1,1.1c0.3,0.3,0.5,0.6,0.8,0.8c0,0,0.1,0,0.1,0
			c0.5-0.5,1.1-1.1,1.6-1.7c0.3-0.3,0.6-0.6,0.8-0.8c0.5-0.5,1-1,1.4-1.5c0.5-0.5,1-1,1.5-1.5c0.2-0.2,0.4-0.4,0.7-0.7
			c0.1-0.1,0-0.1,0-0.2c-0.2-0.2-0.4-0.4-0.6-0.7c0,0,0,0,0.1,0c0.1,0,0.3,0,0.4,0c0.3,0,0.5-0.1,0.8-0.1c0.1,0,0.2,0,0.3,0
			c0.3,0,0.5-0.1,0.8-0.1c0.1,0,0.3,0,0.4-0.1c0,0,0.1,0,0.2,0c0,0.2-0.1,0.4-0.1,0.6c0,0.1,0,0.2,0,0.3c0,0.2-0.1,0.5-0.1,0.7
			c0,0.3-0.1,0.6-0.1,0.9c0,0.1,0,0.3,0,0.5c-0.1-0.1-0.2-0.2-0.3-0.3c-0.1-0.1-0.3-0.3-0.4-0.4c0,0-0.1,0-0.1,0
			c-0.6,0.6-1.3,1.3-1.9,1.9c-0.5,0.5-0.9,0.9-1.4,1.4c-0.3,0.3-0.6,0.7-1,1c-0.3,0.3-0.6,0.6-0.9,0.9c-0.6,0.6-1.2,1.2-1.8,1.8
			c-0.1,0.1-0.1,0.2-0.2,0.2c0,0-0.1,0-0.1,0c-0.5-0.5-1.1-1.1-1.6-1.6c-0.2-0.3-0.5-0.5-0.7-0.8c-0.6-0.6-1.2-1.2-1.8-1.8
			c-0.3-0.3-0.7-0.7-1-1c-0.6-0.6-1.1-1.1-1.7-1.7C6.6,14.3,6.4,14,6,13.7C6.1,13.7,6,13.7,6,13.7z"/>
		<path class="st1" d="M9.6,24.2c0-0.6,0-1.2,0-1.7c0-0.1,0-0.1,0.1-0.1c0,0,0.1,0,0.1,0c3.8,0,7.5,0,11.3,0c0.2,0,0.5,0,0.7,0
			c0.3,0,0.5,0,0.8,0c0.3,0,0.5,0,0.8,0c0.3,0,0.5,0,0.8,0c0,0.6,0,1.2,0,1.8C19.4,24.2,14.5,24.2,9.6,24.2z"/>
		<path class="st1" d="M16.9,19.1c0.3-0.3,0.7-0.7,1-1c0.1-0.1,0.1,0,0.2,0c0.2,0.2,0.4,0.4,0.6,0.6c0.2,0.2,0.5,0.5,0.7,0.7
			c0,0,0.1,0,0.1,0c0.4-0.4,0.9-0.9,1.3-1.3c0.3-0.3,0.6-0.6,0.8-0.9c0.5-0.5,1-1.1,1.5-1.6c0.5-0.5,0.9-0.9,1.4-1.4
			c0.3-0.3,0.7-0.7,1-1c0,0,0-0.1,0-0.1c-0.2-0.2-0.4-0.4-0.6-0.5c0,0-0.1-0.1-0.2-0.1c0,0,0,0,0-0.1c0.1,0,0.2,0,0.3,0
			c0.2,0,0.5-0.1,0.7-0.1c0.3,0,0.6-0.1,0.9-0.1c0.1,0,0.2,0,0.3,0c0.3,0,0.5-0.1,0.8-0.1c0,0.2-0.1,0.4-0.1,0.6c0,0.1,0,0.2,0,0.3
			c0,0.3-0.1,0.5-0.1,0.8c0,0.3-0.1,0.6-0.1,0.8c0,0.1,0,0.3,0,0.4c0,0,0,0,0,0.1c0,0-0.1,0-0.1-0.1c-0.2-0.2-0.4-0.4-0.6-0.6
			c-0.1-0.1-0.1-0.1-0.2,0c-0.7,0.7-1.4,1.4-2.2,2.2c-0.3,0.3-0.6,0.6-0.9,0.9c-0.3,0.3-0.6,0.6-0.9,0.9c-0.2,0.2-0.5,0.5-0.7,0.7
			c-0.8,0.8-1.6,1.6-2.5,2.5c0,0,0,0.1-0.1,0.1C18.6,20.8,17.8,20,16.9,19.1z"/>
		<path class="st1" d="M11.6,13.7c0,0,0.1,0,0.1,0c0.6,0,1.2,0,1.7,0c0.2,0,0.3,0.1,0.4,0.2c0.6,0.6,1.3,1.3,1.9,1.9
			c0.2,0.2,0.4,0.4,0.5,0.6c0.1,0.1,0.1,0.1,0,0.1c-0.3,0.3-0.6,0.6-0.9,0.9c-0.1,0.1-0.1,0.1-0.2,0c-0.3-0.3-0.6-0.6-0.9-0.9
			c-0.4-0.4-0.8-0.8-1.2-1.2c-0.5-0.5-0.9-0.9-1.4-1.4C11.7,13.8,11.6,13.7,11.6,13.7C11.6,13.7,11.6,13.7,11.6,13.7z"/>
	</g>
</g>
</svg>
