<?xml version="1.0" encoding="utf-8"?>
<!-- Generator: Adobe Illustrator 24.0.0, SVG Export Plug-In . SVG Version: 6.00 Build 0)  -->
<svg version="1.1" id="Слой_1" xmlns="http://www.w3.org/2000/svg" xmlns:xlink="http://www.w3.org/1999/xlink" x="0px" y="0px"
	 width="10px" height="25px" viewBox="0 0 10 25" style="enable-background:new 0 0 10 25;" xml:space="preserve">
<style type="text/css">
	.st0{fill:#006F3E;}
</style>
<path class="st0" d="M7.1,19c0.6,0,1.2,0,1.7,0c0,0.6,0,1.2,0,1.8c-0.3,0-0.5,0-0.8,0.1c0,0.3,0,0.5-0.1,0.9c-0.3,0-0.5,0-0.8,0
	c0,0.3,0,0.5-0.1,0.8c-0.3,0-0.5,0.1-0.9,0.1c0,0.3,0,0.5,0,0.8c-0.3,0-0.5,0-0.9,0c0-0.2,0-0.4-0.1-0.7c-0.3,0-0.5,0-0.8-0.1
	c0-0.3-0.1-0.5-0.1-0.8c-0.3,0-0.5-0.1-0.8-0.1c0-0.3-0.1-0.5-0.1-0.8c-0.3,0-0.5-0.1-0.8-0.1c0-0.3-0.1-0.6-0.1-0.9
	c-0.3,0-0.5,0-0.8-0.1c0-0.2,0-0.5,0-0.8C2.5,19,3.3,19,4.2,18.9c0-4.2,0-8.4,0-12.6c-0.8,0-1.7,0-2.6,0c0-0.4,0-0.6,0-0.9
	c0.2,0,0.4,0,0.7-0.1c0-0.3,0-0.5,0.1-0.8c0.3-0.1,0.5-0.1,0.8-0.2C3.1,3.5,3.5,3.4,4.2,3.3C4.1,2.8,4.3,2.5,4.9,2.4
	C5,2.4,5.1,2,5.3,1.7c0.2,0,0.5,0,0.8,0c0,0.3,0,0.5,0,0.8c0.3,0,0.5,0,0.8,0.1c0,0.3,0,0.5,0.1,0.9c0.3,0,0.5,0,0.8,0.1
	c0,0.3,0,0.5,0.1,0.8c0.3,0,0.5,0,0.8,0.1c0,0.6,0,1.1,0,1.7c-0.5,0-1.1,0-1.7,0C7.1,10.5,7.1,14.7,7.1,19z"/>
</svg>
