<?xml version="1.0" encoding="utf-8"?>
<!-- Generator: Adobe Illustrator 24.0.0, SVG Export Plug-In . SVG Version: 6.00 Build 0)  -->
<svg version="1.1" id="Слой_1" xmlns="http://www.w3.org/2000/svg" xmlns:xlink="http://www.w3.org/1999/xlink" x="0px" y="0px"
	 width="24px" height="9px" viewBox="0 0 24 9" style="enable-background:new 0 0 24 9;" xml:space="preserve">
<style type="text/css">
	.st0{fill:#006F3E;}
</style>
<path class="st0" d="M5.6,6.8c0,0.6,0,1.2,0,1.7c-0.6,0-1.2,0-1.8,0c0-0.3,0-0.5-0.1-0.8c-0.3,0-0.5,0-0.9-0.1c0-0.3,0-0.5,0-0.8
	c-0.3,0-0.5,0-0.9-0.1c0-0.3-0.1-0.5-0.1-0.9c-0.3,0-0.5,0-0.8,0c0-0.3,0-0.5,0-0.9c0.2,0,0.4,0,0.7-0.1c0-0.3,0-0.5,0.1-0.8
	C2.1,4,2.4,4,2.7,4c0-0.3,0.1-0.5,0.1-0.8c0.3,0,0.5-0.1,0.8-0.1c0-0.3,0.1-0.5,0.1-0.8c0.3,0,0.6-0.1,0.9-0.1c0-0.3,0-0.5,0.1-0.8
	c0.2,0,0.5,0,0.8,0C5.6,2.2,5.6,3,5.7,3.9c4.2,0,8.4,0,12.7,0c0-0.8,0-1.7,0-2.6c0.4,0,0.6,0,0.9,0c0,0.2,0,0.4,0.1,0.7
	c0.3,0,0.5,0,0.8,0.1c0.1,0.3,0.1,0.5,0.2,0.8c0.7-0.1,0.9,0.3,0.9,0.9c0.6-0.1,0.9,0.1,0.9,0.7c0,0.1,0.4,0.3,0.7,0.4
	c0,0.2,0,0.5,0,0.8c-0.3,0-0.5,0-0.8,0c0,0.3,0,0.5-0.1,0.9c-0.3,0-0.5,0-0.9,0.1c0,0.3,0,0.5-0.1,0.8c-0.3,0-0.5,0-0.9,0.1
	c0,0.3,0,0.5-0.1,0.8c-0.6,0-1.1,0-1.8,0c0-0.6,0-1.1,0-1.7C14.2,6.8,9.9,6.8,5.6,6.8z"/>
</svg>
