<?xml version="1.0" encoding="utf-8"?>
<!-- Generator: Adobe Illustrator 24.0.0, SVG Export Plug-In . SVG Version: 6.00 Build 0)  -->
<svg version="1.1" id="Слой_1" xmlns="http://www.w3.org/2000/svg" xmlns:xlink="http://www.w3.org/1999/xlink" x="0px" y="0px"
	 width="25px" height="10px" viewBox="0 0 25 10" style="enable-background:new 0 0 25 10;" xml:space="preserve">
<style type="text/css">
	.st0{fill:#006F3E;}
</style>
<g>
	<g>
		<path class="st0" d="M19.2,1.6c-0.5,0-0.9,0.2-1.2,0.4c-0.3,0.2-0.5,0.5-0.8,0.7c-0.1,0.1-0.1,0.1-0.2,0.1c0,0,0,0.1-0.1,0.1
			c0,0.1-0.1,0.1-0.1,0.1c0,0.1-0.1,0.1-0.2,0.3c-0.5,0.5-0.9,1-1.4,1.5c-0.2,0.3-0.5,0.6-0.7,0.9c-0.3,0.3-0.6,0.7-0.9,1
			C13.3,7,13,7.3,12.8,7.5c0,0-1.2-0.1-1.2,0l-0.1,0.1l-0.5-0.3c0,0,0,0,0,0C11,7.1,11,7.1,11,7c0,0,0,0,0,0c-0.1,0-0.1,0-0.2-0.1
			c-0.5-0.6-1.1-1.2-1.6-1.8C8.7,4.6,8.2,4,7.7,3.4C7.6,3.4,7.6,3.3,7.5,3.2C7.3,3.1,7.2,3,7.1,2.8C6.9,2.6,6.7,2.4,6.5,2.3
			C6.1,2,5.8,1.7,5.3,1.6c-0.5-0.1-1,0-1.5,0c-0.3,0-1.6,0-1.7,0c-0.2,0-0.3,0-0.5,0c0,0.4,0,0.8,0,1.2c1.1,0,2.2,0,3.2,0
			c0.2,0,0.3,0,0.4,0.1v0c0.4,0.3,0.7,0.5,1,0.8c0,0,0,0,0,0C6.4,3.8,6.5,3.9,6.6,4c0.9,1,1.7,2,2.5,3H8.9c0,0,0,0,0,0
			C9,7,9,7.1,9.1,7.1c0,0,0,0,0,0c0,0,0.1,0,0.1,0c0,0,0,0,0,0c0,0,0,0,0,0c0.1,0.1,0.2,0.1,0.3,0.2c0.3,0.4,0.7,0.7,1.1,1.1
			C11.3,9,11.9,9.1,12.6,9c0.4-0.1,0.7-0.3,1-0.6C14.3,7.8,15,7,15.7,6.3C16,6,16.2,5.6,16.5,5.3c0.3-0.4,0.7-0.8,1-1.1
			c0,0,0.1-0.1,0.2-0.2c0,0,0,0,0,0c0-0.1,0.1-0.1,0.2-0.1c0-0.1,0-0.1,0.1-0.1c0.1-0.1,0.3-0.3,0.5-0.4c0.2-0.1,0.3-0.2,0.5-0.4V3
			C19,3,19.1,2.9,19.1,2.9c0-0.1,0.1-0.1,0.3-0.1c0.6,0,1.3,0,1.9,0c0.8,0,1.5,0,2.3,0c0-0.4,0-0.8,0-1.2
			C21.6,1.6,19.5,1.6,19.2,1.6z"/>
		<path class="st0" d="M12.1,9.5c-0.6,0-1.2-0.2-1.7-0.6C10,8.6,9.5,8.2,9.2,7.8C9.1,7.7,9.1,7.7,9.1,7.7L8.4,7L6.2,4.3
			C6.1,4.2,6,4.2,6,4.2L5.9,4.1l0-0.1c0,0-0.1-0.1-0.1-0.1L4.9,3.3l-0.1,0l-3.7,0l0-2.2l1,0c0.2,0,1.5,0,1.8,0c0.1,0,0.3,0,0.4,0
			c0.4,0,0.7,0,1.1,0C6,1.2,6.5,1.6,6.8,1.9C7,2,7.1,2.1,7.3,2.3l0.2,0.2c0.1,0.1,0.2,0.2,0.2,0.3C7.9,2.9,8,3,8.1,3.1l0.6,0.7
			c0.3,0.4,0.6,0.7,0.9,1.1c0.5,0.6,1.1,1.2,1.6,1.8L11.6,7c0.2,0,0.5,0,0.9,0c0,0,0.6-0.4,0.8-0.6c0.3-0.3,0.6-0.6,0.8-0.9
			c0.2-0.2,0.3-0.4,0.4-0.5l0.7-0.8c0.3-0.4,0.7-0.8,1-1.2c0.1-0.1,0.1-0.1,0.2-0.2l0.1-0.1l0.6-0.5c0.2-0.2,0.4-0.4,0.7-0.6
			c0.4-0.3,0.9-0.6,1.5-0.5c0.3,0,3.2,0,4.3,0l0.5,0l0,2.2l-0.5,0c-0.8,0-1.5,0-2.3,0c-0.6,0-1.2,0-1.7,0l0,0.1l-0.3,0.1L18.4,4
			c0,0,0,0,0,0L18,4.4l-0.4,0.4c-0.2,0.3-0.5,0.5-0.7,0.8c-0.1,0.1-0.2,0.3-0.3,0.4c-0.2,0.2-0.4,0.5-0.5,0.7
			c-0.6,0.7-1.4,1.4-2.1,2.1c-0.2,0.2-0.7,0.6-1.2,0.7C12.5,9.5,12.3,9.5,12.1,9.5z M9.6,6.9C9.8,6.9,9.9,7,10,7.1
			c0.3,0.4,0.7,0.7,1.1,1c0.4,0.4,0.9,0.5,1.5,0.4c0.2,0,0.5-0.2,0.7-0.4C14,7.4,14.7,6.6,15.3,6c0.2-0.2,0.3-0.4,0.5-0.6
			c0.1-0.2,0.2-0.3,0.4-0.5c0.2-0.3,0.5-0.5,0.7-0.8l0.5-0.5c0-0.1,0.1-0.1,0.2-0.2c0,0,0.1-0.1,0.1-0.1C17.7,3.2,17.9,3.1,18,3
			l1.2-0.9c-0.3,0-0.6,0.1-0.9,0.4c-0.2,0.1-0.3,0.3-0.5,0.5l-0.2,0.2c-0.1,0.1-0.1,0.1-0.2,0.1c0,0,0,0,0,0
			c-0.1,0.1-0.1,0.1-0.2,0.2c-0.1,0.1-0.1,0.2-0.3,0.3c-0.4,0.4-0.7,0.8-1,1.2l-0.6,0.8c-0.1,0.2-0.3,0.3-0.4,0.5
			c-0.3,0.4-0.6,0.7-0.9,1c-0.2,0.2-0.5,0.4-0.7,0.7l-0.1,0.1C12.9,8,12.8,8,12.4,8c-0.1,0-0.4,0-0.6,0l-0.2,0.2l-0.4-0.2l-0.8-0.6
			l0-0.1c0,0,0,0-0.1-0.1C9.9,6.7,9.3,6.1,8.8,5.5c0,0,0,0,0,0L9.6,6.9z M6.6,3.3C6.7,3.4,6.8,3.6,7,3.7l1.3,1.5L8.1,4.7
			C8,4.6,7.9,4.5,7.9,4.4L7.3,3.8C7.3,3.7,7.2,3.6,7.2,3.6C7,3.5,6.8,3.3,6.7,3.1L6.6,3C6.5,2.9,6.3,2.8,6.2,2.6
			C5.8,2.4,5.5,2.1,5.2,2.1c-0.1,0-0.2,0-0.3,0l0.8,0.6C6.1,2.9,6.3,3.1,6.6,3.3z M18.3,4C18.3,4,18.3,4,18.3,4
			C18.3,4,18.3,4,18.3,4z M4.8,3.2C4.8,3.2,4.8,3.2,4.8,3.2L4.8,3.2z M19.4,2.3c0.6,0,1.2,0,1.8,0c0.6,0,1.2,0,1.8,0V2.1
			c-2,0-3.1,0-3.6,0V2.3z M2.1,2.3l2.6,0V2.1c-0.1,0-0.3,0-0.4,0c-0.2,0-0.3,0-0.5,0c-0.3,0-1.6,0-1.7,0h0L2.1,2.3z M17,2.3L17,2.3
			C17,2.3,17,2.3,17,2.3z"/>
	</g>
</g>
</svg>
