<?xml version="1.0" encoding="utf-8"?>
<!-- Generator: Adobe Illustrator 24.0.0, SVG Export Plug-In . SVG Version: 6.00 Build 0)  -->
<svg version="1.1" id="Слой_1" xmlns="http://www.w3.org/2000/svg" xmlns:xlink="http://www.w3.org/1999/xlink" x="0px" y="0px"
	 width="9px" height="25px" viewBox="0 0 9 25" style="enable-background:new 0 0 9 25;" xml:space="preserve">
<style type="text/css">
	.st0{fill:#006F3E;}
</style>
<path class="st0" d="M0.6,5.4c0,0.7,0.6,1.8,1.1,1.8c0.7,0,0.6,0.4,0.6,0.8c0,5.3,0,10.7,0,16c1.3,0,2.8,0,4,0V7.3
	C7.4,7,7.9,6.4,7.9,5.4c0-0.3,0-0.7,0-1h0c0-0.7,0-1.5,0-2.2c0-0.7-0.3-1-1-1c-1.8,0-3.5,0-5.3,0c-0.7,0-1,0.4-1,1.1
	c0,0.7,0,1.5,0,2.2h0C0.6,4.7,0.6,5.1,0.6,5.4z"/>
</svg>
