<?xml version="1.0" encoding="utf-8"?>
<!-- Generator: Adobe Illustrator 24.0.0, SVG Export Plug-In . SVG Version: 6.00 Build 0)  -->
<svg version="1.1" id="Слой_1" xmlns="http://www.w3.org/2000/svg" xmlns:xlink="http://www.w3.org/1999/xlink" x="0px" y="0px"
	 width="20px" height="17px" viewBox="0 0 20 17" style="enable-background:new 0 0 20 17;" xml:space="preserve">
<style type="text/css">
	.st0{fill:#006F3E;}
</style>
<g>
	<path class="st0" d="M19,14.3c0-0.6,0-1.1,0-1.7h-1.9V4H19c0-0.6,0-1.2,0-1.8h-2V0.9h-2.5c0,0.5-0.1,0.9-0.1,1.4h-2.5V0.9H9.5v1.4
		H6.9V0.9H4.3v1.3H1.8c0,0.6,0,1.2,0,1.8h2.5v8.5H1.8c0,0.6,0,1.2,0,1.8h2.5c0,0.4,0,0.8,0,1.1c0,0.3,0.2,0.4,0.6,0.4
		c0.6,0,1.3,0,2,0v-1.5h2.6v1.5h2.4v-1.5h2.5c0.1,1.6,0.1,1.6,2.1,1.6c0.4,0,0.6-0.1,0.6-0.4c0-0.4,0-0.8,0-1.2H19z M9.4,12.5H6.9V4
		h2.5V12.5z M14.4,12.5h-2.5V4h2.5V12.5z"/>
</g>
</svg>
