<?xml version="1.0" encoding="utf-8"?>
<!-- Generator: Adobe Illustrator 24.0.0, SVG Export Plug-In . SVG Version: 6.00 Build 0)  -->
<svg version="1.1" id="Слой_1" xmlns="http://www.w3.org/2000/svg" xmlns:xlink="http://www.w3.org/1999/xlink" x="0px" y="0px"
	 width="110px" height="110px" viewBox="0 0 110 110" style="enable-background:new 0 0 110 110;" xml:space="preserve">
<style type="text/css">
	.st0{fill:#FFFFFF;}
	.st1{fill:none;stroke:#013A21;stroke-width:3;stroke-miterlimit:10;}
</style>
<g>
	<g>
		<path class="st0" d="M54.2,85.6c-11.4,0-22.9,0-34.3,0c-0.2,0-0.5,0.1-0.7,0c-0.3-0.1-0.6-0.2-0.7-0.5c-0.1-0.2,0.2-0.5,0.3-0.8
			c0.2-0.4,0.5-0.7,0.5-1.1c0.1-1,0-2,0-3c0-0.4,0.2-0.9-0.5-1.2c-0.4-0.2-0.3-1,0.3-1.3c0.4-0.2,0.8-0.7,1.1-1.1
			c0.3-0.4,0.4-0.8,0.6-1.2c0.1-0.2,0.2-0.5,0.2-0.7c-0.4-1.1-0.6-2.5-1.9-3.1c-0.8-0.4-0.8-0.8-0.1-1.4c0.2-0.1,0.4-0.5,0.4-0.7
			c0-7.2,0-14.4,0-21.5c0-0.3-0.1-0.6-0.3-0.8c-0.6-0.6-0.7-1.1,0.1-1.4c1.2-0.5,1.4-1.6,1.9-2.5c0.4-0.7-0.9-3-1.7-3.4
			c-0.9-0.4-1-0.8-0.2-1.6c0.2-0.2,0.3-0.5,0.3-0.7c0-2.1,0-4.2,0-6.3c0-0.3-0.3-0.6-0.5-0.8c-0.4-0.5-0.6-0.9,0.1-1.2
			c0.3-0.1,0.7-0.2,1.1-0.2c22.9,0,45.8,0,68.7,0c0.3,0,0.7,0,1,0.2c0.7,0.3,0.7,0.8,0.2,1.3c-0.2,0.2-0.5,0.6-0.5,0.8
			c0,2.1,0,4.1,0,6.2c0,0.1,0,0.4,0,0.4c1.4,1.1,0.3,3,1.5,4.2c0.7,0.7,0.1,1.5-0.3,2.3c-0.3,0.6-1,1.1-0.3,1.9
			c0.1,0.1,0,0.5-0.2,0.6c-0.7,0.3-0.7,1-0.7,1.6c0,6.8,0,13.5,0,20.3c0,0.5-0.3,1.3,0.7,1.5c0.1,0,0.3,0.6,0.2,0.7
			c-0.8,0.7-0.1,1.4,0.2,1.8c1,1.4,0.7,2.7-0.2,4c-0.3,0.4-0.5,0.7-0.1,1.2c0.1,0.1,0,0.9-0.2,0.9c-0.8,0.2-0.6,0.8-0.6,1.3
			c0,0.9,0,1.8,0,2.6c0,0.6-0.1,1.2,0.6,1.5c0.2,0.1,0.3,0.6,0.2,0.7c-0.3,0.2-0.6,0.5-0.9,0.5c-1.8,0.1-3.6,0-5.4,0
			C73.9,85.6,64,85.6,54.2,85.6C54.2,85.6,54.2,85.6,54.2,85.6z M45.7,47.4c0,0.3-0.1,0.5-0.1,0.7c0,3,0,6,0,9c0,4,0,8,0,12.1
			c0,0.8,0.2,1.1,1.1,1.1c0.9-0.1,1.8-0.1,2.6,0c1,0.1,1.2-0.3,1.2-1.2c0-6.9,0-13.8,0-20.7c0-0.3,0-0.7,0-1
			C48.8,47.4,47.3,47.4,45.7,47.4z M58.1,47.3c0,7.7,0,15.3,0,22.9c1.2,0,2.3-0.1,3.4,0c1.1,0.1,1.3-0.4,1.3-1.4c0-4.8,0-9.6,0-14.5
			c0-2.1,0-4.1,0-6.2c0-0.7-0.2-0.9-0.9-0.9C60.7,47.4,59.4,47.3,58.1,47.3z M52,47.3c0,7.7,0,15.3,0,22.8c1.5,0,3,0,4.5,0
			c0-0.4,0-0.8,0-1.2c0-5.8,0-11.7,0-17.5c0-1,0.2-2.1,0.2-3.1c0-0.3-0.3-0.9-0.5-0.9C54.8,47.3,53.4,47.3,52,47.3z M33.3,47.4
			c0,7.7,0,15.2,0,22.8c1.6,0,3,0,4.5,0c0-7.6,0-15.2,0-22.8C36.3,47.4,34.8,47.4,33.3,47.4z M39.6,47.4c0,7.7,0,15.2,0,22.8
			c1.6,0,3.1,0,4.5,0c0-7.6,0-15.2,0-22.8C42.6,47.4,41.1,47.4,39.6,47.4z M83,70.2c1.6,0,3,0,4.5,0c0-7.6,0-15.2,0-22.8
			c-1.5,0-3,0-4.5,0C83,55,83,62.5,83,70.2z M64.4,47.4c0,7.7,0,15.2,0,22.8c1.6,0,3,0,4.5,0c0-7.6,0-15.2,0-22.8
			C67.4,47.4,65.9,47.4,64.4,47.4z M25.4,70.2c0-7.7,0-15.2,0-22.8c-1.5,0-3,0-4.5,0c0,7.6,0,15.2,0,22.8
			C22.4,70.2,23.9,70.2,25.4,70.2z M70.7,47.4c0,7.6,0,15.2,0,22.8c1.2,0,2.2-0.1,3.3,0c1,0.1,1.3-0.2,1.3-1.2c0-6.9,0-13.8,0-20.7
			c0-0.3,0-0.6,0-1C73.7,47.4,72.2,47.4,70.7,47.4z M31.5,70.2c0-7.7,0-15.2,0-22.8c-1.5,0-2.9,0-4.4,0c0,7.6,0,15.2,0,22.8
			C28.6,70.2,30,70.2,31.5,70.2z M81.2,70.2c0-7.7,0-15.2,0-22.8c-1.5,0-2.9,0-4.3,0c0,7.6,0,15.2,0,22.8
			C78.4,70.2,79.8,70.2,81.2,70.2z M58.1,30.5c0,2.7,0,5.2,0,7.8c1.4,0,2.7,0,4,0c0.2,0,0.6-0.4,0.6-0.6c0-2.2,0-4.3,0-6.5
			c0-0.2-0.4-0.6-0.6-0.6C60.8,30.5,59.5,30.5,58.1,30.5z M50.4,34.4c0-1.1,0-2.1,0-3.1c0-0.3-0.4-0.7-0.7-0.7c-1-0.1-2.1,0-3.1,0
			c-0.7,0-0.9,0.2-0.9,0.9c0,2,0,4.1,0,6.1c0,0.6,0.3,0.8,0.8,0.8c1,0,2.1,0,3.1,0c0.7,0,0.9-0.3,0.9-1
			C50.4,36.4,50.4,35.4,50.4,34.4z M44.1,38.2c0-2.6,0-5.2,0-7.7c-1.5,0-3,0-4.5,0c0,2.6,0,5.1,0,7.7C41.1,38.2,42.5,38.2,44.1,38.2
			z M64.4,30.6c0,2.6,0,5.2,0,7.7c1.5,0,3,0,4.5,0c0-2.6,0-5.1,0-7.7C67.3,30.6,65.9,30.6,64.4,30.6z M87.6,30.6c-1.6,0-3,0-4.5,0
			c0,2.6,0,5.1,0,7.6c1.5,0,3,0,4.5,0C87.6,35.6,87.6,33.1,87.6,30.6z M20.9,38.3c1.4,0,2.6,0,3.9,0c0.2,0,0.7-0.4,0.7-0.6
			c0.1-2.2,0-4.3,0-6.5c0-0.2-0.3-0.6-0.5-0.6c-1.3-0.1-2.7,0-4.1,0C20.9,33.1,20.9,35.7,20.9,38.3z M33.2,30.6c0,2.4,0,4.8,0,7.2
			c0,0.2,0.4,0.5,0.6,0.5c1.3,0,2.6,0,3.9,0c0-2.7,0-5.2,0-7.7C36.2,30.6,34.8,30.6,33.2,30.6z M51.9,30.6c0,2.4,0,4.8,0,7.1
			c0,0.2,0.4,0.6,0.7,0.6c1,0.1,2.1,0,3.1,0c0.6,0,0.8-0.3,0.8-0.8c0-1.6,0-3.2,0-4.8c0-0.7,0-1.4,0-2.1
			C54.9,30.6,53.5,30.6,51.9,30.6z M70.6,38.3c1.4,0,2.7,0,3.9,0c0.2,0,0.6-0.5,0.6-0.7c0.1-2.1,0-4.2,0-6.3c0-0.2-0.3-0.7-0.5-0.7
			c-1.3-0.1-2.7,0-4.1,0C70.6,33.2,70.6,35.6,70.6,38.3z M31.5,30.6c-1.5,0-2.9,0-4.5,0c0,2.4,0,4.8,0,7.2c0,0.2,0.3,0.4,0.4,0.5
			c1.3,0,2.7,0,4.1,0C31.5,35.6,31.5,33.2,31.5,30.6z M81.2,38.2c0-2.6,0-5.1,0-7.7c-1.5,0-2.8,0-4.3,0c0,2.6,0,5.1,0,7.7
			C78.4,38.2,79.8,38.2,81.2,38.2z M33.8,71.7c0.2,0.5,0.4,1,0.6,1.4c0.7,1,0.8,2,0.1,3.1c-0.3,0.4-0.4,0.9-0.7,1.4c1.5,0,2.7,0,4,0
			c0.2,0,0.5-0.1,0.6-0.2c0.5-0.9,1.1-1.7,1.3-2.6c0.1-0.6-0.6-1.4-1-2c-0.2-0.4-0.6-0.9-1-1C36.4,71.6,35.2,71.7,33.8,71.7z
			 M46.2,77.3c0.1,0.1,0.1,0.2,0.2,0.2c1.3,0,2.7,0,4,0c0.1,0,0.2-0.1,0.3-0.2c0.9-0.7,1.4-2.7,0.9-3.7c-0.3-0.7-0.7-1.8-1.2-1.9
			c-1.3-0.3-2.7-0.1-4.4-0.1C47.6,73.7,47.9,75.5,46.2,77.3z M52.3,77.6c1.7,0,3,0,4.3,0c0.1,0,0.3-0.2,0.4-0.3
			c0.4-0.7,1.2-1.6,1.1-2.2c-0.2-1.1-0.6-2.8-1.5-3.2c-1.1-0.5-2.7-0.1-4.4-0.1C53.8,73.7,54,75.6,52.3,77.6z M58.4,77.6
			c1,0,1.7-0.1,2.4,0c1.6,0.2,2.7-0.2,3.2-1.8c0.3-0.9-0.3-3.5-1.1-4c-0.1,0-0.2-0.1-0.3-0.1c-1.3,0-2.7,0-4.3,0
			C60.2,73.7,60.2,75.6,58.4,77.6z M27.5,71.7c0.5,1.2,1.2,2.1,1.2,3c0,0.9-0.7,1.8-1.1,2.8c1.6,0,3,0,4.3,0
			c0.3-0.4,0.6-0.8,0.7-1.3c0.3-0.6,0.7-1.3,0.6-1.9c-0.1-0.8-0.7-1.5-1.1-2.2c-0.1-0.2-0.3-0.4-0.5-0.4
			C30.4,71.7,29,71.7,27.5,71.7z M77.3,71.7c0.5,1.1,1.2,2,1.2,2.9c0,0.9-0.7,1.9-1.1,2.9c1.1,0,2-0.1,2.8,0
			c1.2,0.2,1.9-0.3,2.2-1.3c0.2-0.7,1.1-1.1,0.6-2c-0.4-0.7-0.7-1.4-1.1-2.1c-0.1-0.2-0.4-0.5-0.6-0.5
			C80.1,71.7,78.8,71.7,77.3,71.7z M83.5,71.7c0.3,0.6,0.4,1.1,0.7,1.4c0.8,1.1,0.6,2.1,0,3.1c-0.2,0.4-0.4,0.8-0.7,1.4
			c1.5,0,2.9,0,4.2,0c0.2,0,0.4-0.1,0.5-0.2c0.5-0.9,1.1-1.7,1.2-2.7c0.1-0.5-0.4-1.2-0.8-1.8c-0.3-0.5-0.3-1.3-1.3-1.3
			C86.1,71.8,84.9,71.7,83.5,71.7z M71.1,77.6c1.2,0,2.2-0.1,3.1,0c1,0.1,1.6-0.3,1.9-1.1c0.3-0.7,0.7-1.5,0.6-2.3
			c-0.1-0.7-0.6-1.4-1-2.1c-0.1-0.2-0.4-0.4-0.6-0.4c-1.3,0-2.6,0-4.1,0c0.5,1.1,1.3,2,1.3,2.9C72.4,75.5,71.6,76.5,71.1,77.6z
			 M21.5,77.6c1.1,0,2.1-0.1,3.1,0c1,0.1,1.6-0.3,1.9-1.1c0.2-0.8,1.2-1.4,0.6-2.4c-0.2-0.4-0.3-0.8-0.5-1.1
			c-0.3-0.5-0.7-1.2-1.1-1.3c-1.3-0.2-2.6-0.1-4.1-0.1c0.5,1.1,1.3,2,1.3,2.9C22.6,75.5,21.9,76.5,21.5,77.6z M40.1,77.6
			c1.3,0,2.5,0,3.7,0c0.2,0,0.5-0.1,0.6-0.2c0.5-0.8,1.1-1.7,1.4-2.6c0.1-0.4-0.3-1-0.5-1.5c-0.3-0.6-0.6-1.4-1.1-1.5
			c-1.3-0.2-2.7-0.1-4.1-0.1c0.4,1.1,1.1,2,1.1,3C41.2,75.6,40.5,76.6,40.1,77.6z M64.6,71.7c1.8,2,1.9,3.9,0.1,5.9
			c1.4,0,2.5-0.1,3.6,0c0.8,0.1,1.3-0.3,1.6-1c0.2-0.4,0.4-0.9,0.6-1.3c0.3-0.7-0.7-3.4-1.4-3.6c-0.1,0-0.2,0-0.3,0
			C67.5,71.7,66.3,71.7,64.6,71.7z M52.3,39.8c1.4,2.1,1.9,3.9,0,5.7c0.8,0.1,1.5,0.2,2.1,0.2c0.7,0,1.4-0.1,2.1-0.2
			c0.2,0,0.5-0.2,0.6-0.4c0.4-0.6,0.7-1.3,1-1.9c0.2-0.6-0.7-3.1-1.2-3.4c-0.1,0-0.1-0.1-0.2-0.1C55.2,39.8,53.9,39.8,52.3,39.8z
			 M33.8,39.9c0.3,0.6,0.4,1,0.7,1.5c0.5,1,0.8,2-0.1,3c-0.3,0.3-0.4,0.8-0.6,1.3c1.4,0,2.7,0,3.9,0c0.2,0,0.6-0.1,0.6-0.2
			c0.4-1.2,1.7-2.1,0.8-3.7c-0.9-1.6-0.7-1.7-2.6-1.7C35.7,39.9,34.9,39.9,33.8,39.9z M40,39.9c0.3,0.6,0.5,1.1,0.8,1.6
			c0.5,1,0.6,1.9-0.1,2.9c-0.3,0.4-0.4,0.8-0.7,1.3c1,0,1.8-0.1,2.7,0c1.3,0.2,2.1-0.2,2.5-1.4c0.2-0.5,0.6-1.1,0.5-1.5
			c-0.3-0.9-0.8-1.8-1.2-2.7c-0.1-0.1-0.4-0.2-0.6-0.2C42.7,39.9,41.4,39.9,40,39.9z M83.3,45.6c1.5,0,2.5,0,3.6,0
			c0.2,0,0.4,0.1,0.6,0c0.3-0.1,0.6-0.2,0.7-0.4c0.4-0.6,1.1-1.4,1-2c-0.2-1.2-0.9-2.2-1.4-3.4c0,0-0.1-0.1-0.2-0.1
			c-1.3,0-2.6,0-4.2,0C84.7,41.8,85.3,43.7,83.3,45.6z M32,45.6c0.2-0.4,0.3-0.8,0.6-1.1c0.9-1.1,0.9-2.2,0.1-3.3
			c-0.3-0.5-0.3-1.4-1.2-1.4c-1.2,0-2.5,0-4,0c0.5,1.1,1.2,2,1.2,2.9c0,0.9-0.7,1.9-1,2.9C29.2,45.6,30.6,45.6,32,45.6z M58.6,45.6
			c1.1,0,2.1-0.1,3.1,0c1,0.1,1.6-0.3,2-1.2c0.1-0.2,0.1-0.3,0.2-0.5c0.6-0.7,0.5-1.3,0.1-2c-0.4-0.6-0.7-1.3-1-2
			c0-0.1-0.2-0.1-0.3-0.1c-1.4,0-2.7,0-4.2,0C60.1,43.1,60.1,43.1,58.6,45.6z M81.8,45.6c0.2-0.3,0.3-0.7,0.5-1
			c0.7-1,1.1-2.1,0.3-3.2c-0.4-0.5-0.7-1.4-1.2-1.5c-1.3-0.2-2.6-0.1-4.1-0.1c0.5,1.1,1.2,2,1.2,2.9c0,0.9-0.7,1.9-1,2.8
			C78.9,45.6,80.4,45.6,81.8,45.6z M75.5,45.6c0.2-0.3,0.4-0.6,0.6-0.9c0.3-0.7,0.8-1.4,0.7-2.1c-0.1-0.7-0.6-1.5-1-2.1
			c-0.2-0.3-0.7-0.5-1-0.6c-1.1-0.1-2.3,0-3.7,0c0.5,1,1.2,1.9,1.2,2.8c0,0.9-0.7,1.9-1.1,2.9C72.7,45.6,74.1,45.6,75.5,45.6z
			 M65,45.6c0.6,0,1.2-0.1,1.8,0c1.7,0.3,3-0.2,3.6-2c0.3-0.7-0.6-3.5-1.3-3.7c-0.1,0-0.2,0-0.3,0c-1.3,0-2.5,0-4,0
			c0.5,1,1.3,1.9,1.3,2.8C66.1,43.6,65.4,44.5,65,45.6z M25.7,45.6c0.2-0.3,0.4-0.6,0.5-0.9c0.3-0.7,0.9-1.4,0.8-2
			c-0.1-0.9-0.7-1.7-1.2-2.5c-0.1-0.2-0.4-0.3-0.6-0.3c-1.3,0-2.5,0-4,0c0.5,1.1,1.3,2,1.3,2.9c0,0.9-0.7,1.9-1.2,2.9
			C22.9,45.6,24.3,45.6,25.7,45.6z M46,39.9c1.6,2,1.8,3.8,0,5.8c1.6,0,2.8,0,4.1,0c0.3,0,0.6-0.3,0.8-0.5c0.4-0.6,0.7-1.2,1-1.9
			c0.1-0.2,0.1-0.4,0-0.6c-0.3-0.7-0.6-1.5-0.9-2.2c-0.1-0.3-0.5-0.5-0.8-0.6C48.9,39.8,47.7,39.9,46,39.9z M50.4,84.1
			c0-1.5,0-2.9,0-4.4c0-0.2-0.4-0.6-0.7-0.6c-1.1-0.1-2.2-0.1-3.4,0c-0.3,0-0.7,0.3-0.7,0.5c-0.1,1.5,0,3,0,4.5
			C47.3,84.1,48.8,84.1,50.4,84.1z M58.1,79.1c0,1.7,0,3.3,0,5c1.5,0,3.1,0,4.7,0c0-1.5,0-2.9,0-4.3c0-0.2-0.5-0.6-0.8-0.6
			C60.7,79,59.4,79.1,58.1,79.1z M25.4,79.1c-1.5-0.1-3-0.1-4.3-0.2c-0.3,0.6-0.7,1.4-1.1,2.1c1-0.2,0.9,0.5,0.9,1.2
			c0,0.6,0,1.2,0,1.8c1.6,0,3.1,0,4.6,0C25.4,82.4,25.4,80.8,25.4,79.1z M37.8,79.1c-1.6,0-3,0-4.5,0c0,1.7,0,3.3,0,4.9
			c1.6,0,3,0,4.5,0C37.8,82.4,37.8,80.8,37.8,79.1z M39.6,84c1.6,0,3,0,4.5,0c0-1.7,0-3.3,0-4.9c-1.5,0-3,0-4.5,0
			C39.6,80.8,39.6,82.4,39.6,84z M56.5,79.1c-1.6,0-3.1,0-4.5,0c0,1.7,0,3.3,0,4.9c1.5,0,3,0,4.5,0C56.5,82.4,56.5,80.8,56.5,79.1z
			 M68.9,79.1c-1.5,0-3,0-4.5,0c0,1.7,0,3.3,0,4.9c1.5,0,3,0,4.5,0C68.9,82.3,68.9,80.7,68.9,79.1z M70.7,84c1.6,0,3,0,4.6,0
			c0-1.5,0-2.9,0-4.3c0-0.2-0.4-0.7-0.6-0.7c-1.3-0.1-2.6,0-3.9,0C70.7,80.7,70.7,82.3,70.7,84z M87.6,79.1c-1.5,0-3,0-4.5,0
			c0,1.7,0,3.3,0,4.9c1.5,0,3,0,4.5,0C87.6,82.4,87.6,80.8,87.6,79.1z M27.1,79.1c0,1.7,0,3.3,0,4.9c1.5,0,2.9,0,4.3,0
			c0-1.7,0-3.3,0-4.9C30,79.1,28.6,79.1,27.1,79.1z M77,79.1c0,1.7,0,3.3,0,5c1.5,0,2.9,0,4.3,0c0-1.7,0-3.3,0-5
			C79.8,79.1,78.4,79.1,77,79.1z"/>
	</g>
	<rect x="2" y="2.8" class="st1" width="105.1" height="105.1"/>
</g>
</svg>
