<?xml version="1.0" encoding="utf-8"?>
<!-- Generator: Adobe Illustrator 24.0.0, SVG Export Plug-In . SVG Version: 6.00 Build 0)  -->
<svg version="1.1" id="Слой_1" xmlns="http://www.w3.org/2000/svg" xmlns:xlink="http://www.w3.org/1999/xlink" x="0px" y="0px"
	 width="95px" height="86px" viewBox="0 0 95 86" style="enable-background:new 0 0 95 86;" xml:space="preserve">
<style type="text/css">
	.st0{fill:#006F3E;}
</style>
<g>
	<path class="st0" d="M82.4,58.6c1.3,0,2.5,0.6,3.3,1.6c0.8,1.1,0.6,2.5-0.6,3.4c-0.9,0.7-1.9,1.1-3.1,1.1c-16.1,0-32.1,0-48.2,0
		c-0.4,0-0.7-0.1-0.8-0.6c-0.4-1.6-0.9-3.1-1.3-4.7c-0.2-0.7-0.3-1.5-0.5-2.3c-0.3-1.1-0.6-2.2-0.9-3.4c-0.2-0.8-0.4-1.5-0.6-2.3
		c-0.3-1.1-0.6-2.2-0.9-3.2c-0.2-0.8-0.4-1.6-0.6-2.3c-0.4-1.6-0.9-3.2-1.3-4.8c-0.2-0.7-0.3-1.4-0.5-2.2c-0.3-1.2-0.7-2.3-1-3.5
		c-0.2-0.7-0.3-1.5-0.5-2.2c-0.4-1.6-0.9-3.2-1.3-4.8c-0.2-0.7-0.3-1.5-0.5-2.2c-0.4-1.6-0.9-3.2-1.3-4.7c-0.2-0.7-0.4-1.5-0.6-2.2
		c-0.3-1.1-0.6-2.3-0.9-3.4c-0.2-0.7-0.3-1.5-0.5-2.2c-0.4-1.6-0.9-3.2-1.3-4.8c-0.1-0.2-0.1-0.5-0.2-0.7c-0.2-1-0.2-0.8-1.1-1
		c-0.4-0.1-0.7,0-1.1,0c-2.1,0-4.2-0.1-6.3-0.1c-1.7,0-3.4,0-5-0.2C3.3,7,2.4,6.3,1.7,5.1C1.3,4.4,1.3,3.6,1.4,2.8
		c0-0.6,1.1-1.7,1.7-1.9c1.7-0.6,3.4-0.3,5.1-0.3c2.9,0,5.7,0,8.6,0.1c0.9,0,1.9,0,2.8,0c1.7,0,2.9,0.7,3.5,2.3
		c0.3,0.8,0.5,1.7,0.7,2.5c0.3,1.1,0.6,2.1,0.9,3.2c0.2,0.7,0.3,1.4,0.5,2.1c0.3,1.1,0.6,2.2,1,3.3c0.1,0.3,0.2,0.5,0.1,0.8
		c0,0.6,0.3,0.7,0.8,0.7c4.3,0,8.6,0,12.9,0c11.7,0,23.5,0,35.2,0c1.5,0,2.9,0.1,4.4,0.1c3,0,6-0.1,9.1-0.1c2,0,4.3,1.1,4.9,3.4
		c0.2,0.8,0.2,1.7,0,2.4c-0.7,2.1-1.6,4-2.3,6.1c-0.8,2.1-1.6,4.2-2.4,6.3c-0.3,0.8-0.7,1.6-1,2.4c-0.4,1.1-0.8,2.2-1.2,3.3
		c-0.4,1.1-0.9,2.2-1.3,3.2c-0.3,0.7-0.5,1.3-0.8,2c-0.4,1.1-0.8,2.3-1.3,3.4c-0.4,1-0.9,2.1-1.3,3.1c-0.5,1.3-1.6,1.8-2.9,1.8
		c-5.2,0-10.4,0-15.6,0c-8.8,0-17.5,0-26.3,0c-0.2,0-0.4,0-0.7,0c0.5,2,1,3.9,1.6,5.8C49,58.6,79.3,58.6,82.4,58.6z M27.9,21.6
		c0.2,0.2,0.3,0.3,0.3,0.4c0.3,0.9,0.5,1.8,0.8,2.7c0.4,1.3,0.7,2.7,1.1,4c0.4,1.6,0.8,3.2,1.2,4.8c0.3,1.3,0.7,2.6,1.1,4
		c0.2,0.6,0.3,1.2,0.5,1.8c0.3,1.1,0.6,2.1,0.9,3.2c0.2,0.7,0.3,1.3,0.5,2c0.2,0.7,0.6,1.4,0.7,2.1c0.1,0.6,0.3,0.8,0.9,0.8
		c5.5,0,10.9,0,16.4,0c8.2,0,16.5,0,24.7,0c0.5,0,0.8-0.2,1-0.7c0.3-0.8,0.6-1.6,0.9-2.4c0.4-1.1,0.8-2.2,1.2-3.3
		c0.4-1.1,0.8-2.2,1.3-3.3c0.4-1.1,0.9-2.1,1.3-3.2c0.4-1.1,0.8-2.3,1.3-3.4c0.6-1.5,1.2-2.9,1.7-4.4c0.5-1.2,0.9-2.3,1.4-3.5
		c0.2-0.5,0.4-1.1,0.6-1.6C67.8,21.6,47.9,21.6,27.9,21.6z"/>
	<path class="st0" d="M35.4,76.7c0.1-4.7,3.7-8.1,7.9-8.1c5-0.1,8.4,3.8,8.3,8.2c0,4.5-3.6,8.2-8.3,8.1
		C38.9,84.7,35.6,81.3,35.4,76.7z"/>
	<path class="st0" d="M73,84.8c-4.3-0.1-8.1-3.6-8.1-8.1c0-4.6,3.9-8.2,8-8.1c5.1,0.1,8.3,3.9,8.2,8.2C81.1,81.4,77.6,84.7,73,84.8z
		"/>
</g>
</svg>
