<?xml version="1.0" encoding="utf-8"?>
<!-- Generator: Adobe Illustrator 24.0.0, SVG Export Plug-In . SVG Version: 6.00 Build 0)  -->
<svg version="1.1" id="Слой_1" xmlns="http://www.w3.org/2000/svg" xmlns:xlink="http://www.w3.org/1999/xlink" x="0px" y="0px"
	 width="57px" height="36px" viewBox="0 0 57 36" style="enable-background:new 0 0 57 36;" xml:space="preserve">
<style type="text/css">
	.st0{fill:#0B2842;}
</style>
<g>
	<path class="st0" d="M20.4,28.3c-1.4,0-2.5-1.2-2.5-2.6c0-1.2,1.4-2.6,2.6-2.4c1.5,0.1,2.2,1.1,2.4,2.5
		C23.1,26.9,21.6,28.3,20.4,28.3z"/>
	<path class="st0" d="M28.2,28.3c-0.9-0.1-1.8-0.9-1.8-2.4c0-1.5,1.1-2.6,2.4-2.6c1.1,0,2.6,1.6,2.6,2.6C31.4,27,30,28.3,28.2,28.3z
		"/>
	<path class="st0" d="M35,4.2c0-1.7,0.9-2.6,2.3-2.7c1.2-0.1,2.5,1.4,2.5,2.7c0,1.5-1.1,2.5-2.6,2.4C35.5,6.4,34.8,5.6,35,4.2z"/>
	<path class="st0" d="M9.4,11.3c0-1.3,1.4-2.6,2.7-2.5c1.5,0.2,2.3,1.2,2.3,2.6c0,1.4-1,2.3-2.4,2.5C10.8,14,9.4,12.5,9.4,11.3z"/>
	<path class="st0" d="M5.9,18.5c0,1.3-1.4,2.9-2.4,2.7c-1.3-0.3-2.4-1-2.3-2.7c0-1.7,1-2.3,2.4-2.3C5.2,16.2,6.1,16.9,5.9,18.5z"/>
	<path class="st0" d="M26.4,18.3c0-1.2,0.7-2.1,2.3-2.2c1.5-0.1,3,1.1,2.6,2.3c-0.4,1.1-1.5,2.1-2.5,2.6
		C27.8,21.5,26.5,19.9,26.4,18.3z"/>
	<path class="st0" d="M56.4,18.6c0,1.4-1.5,3-2.5,2.5c-1-0.5-2.1-1.5-2.4-2.6c-0.4-1.1,1.2-2.4,2.6-2.4
		C55.6,16.2,56.5,17.1,56.4,18.6z"/>
	<path class="st0" d="M6,25.8c0,1.6-1,2.5-2.5,2.5c-1.6-0.1-2.2-1-2.3-2.5c-0.1-1.7,1-2.3,2.3-2.5C5,23.1,6,24.2,6,25.8z"/>
	<path class="st0" d="M12,28.3c-1.3,0-2.6-1.3-2.6-2.5c0-1.6,1.2-2.3,2.5-2.4c1.3-0.1,2.5,0.6,2.6,2.2C14.6,27,13.4,28.2,12,28.3z"
		/>
	<path class="st0" d="M20.2,8.8c1.5,0,3,1.5,2.8,2.6c-0.3,1.4-1.1,2.3-2.6,2.4c-1.4,0.1-2.6-1.3-2.5-2.6C18.1,9.7,18.9,9,20.2,8.8z"
		/>
	<path class="st0" d="M35,11.2c-0.1-1.5,0.8-2.3,2.3-2.4c1.5-0.1,2.5,1.1,2.5,2.6c0,1.7-1.1,2.2-2.4,2.5
		C35.9,14.1,34.9,12.8,35,11.2z"/>
	<path class="st0" d="M48,11.6c0.2,1.5-1,2.1-2.3,2.2c-1.3,0.2-2.5-1.2-2.5-2.6c0-1.6,1.1-2.3,2.4-2.4C47.1,8.7,48,9.8,48,11.6z"/>
	<path class="st0" d="M14.5,18.5c0,1.2-1.5,2.7-2.6,2.7c-1.1,0-2.6-1.6-2.5-2.7c0.2-1.4,1-2.4,2.5-2.4
		C13.5,16.2,14.4,16.9,14.5,18.5z"/>
	<path class="st0" d="M45.5,16.1c1.7,0.1,2.7,1.1,2.6,2.6c-0.1,1.5-1.2,2.3-2.5,2.4c-1.1,0.1-2.4-1.5-2.4-2.8
		C43.2,16.8,44.2,16.2,45.5,16.1z"/>
	<path class="st0" d="M1.3,11.3C1.1,9.7,2.1,9,3.5,8.8c1.4-0.1,2.3,1,2.4,2.5c0.1,1.8-1.1,2.2-2.3,2.5C2.5,14.1,1.2,12.6,1.3,11.3z"
		/>
	<path class="st0" d="M26.4,11.1c0.2-1.2,0.8-2.2,2.4-2.3c1.2-0.1,2.7,1.4,2.7,2.5c0,1.1-1.5,2.5-2.7,2.5
		C27.6,13.9,26.4,12.6,26.4,11.1z"/>
	<path class="st0" d="M20.7,16.2c1.3,0,2,1,2.2,2.3c0.2,1.1-1.3,2.7-2.4,2.7c-1.1,0.1-2.6-1.4-2.6-2.6C17.9,17.3,19,16.2,20.7,16.2z
		"/>
	<path class="st0" d="M35,18.4c-0.2-1.7,0.9-2.3,2.3-2.3c1.5,0,2.4,0.8,2.4,2.4c0,1.2-1.4,2.9-2.4,2.6C35.9,20.9,34.7,20.2,35,18.4z
		"/>
	<path class="st0" d="M48,25.3c0,2-1.1,3.1-2.6,3c-1.4-0.1-2.3-0.9-2.3-2.4c0-1.4,1.2-2.7,2.5-2.5C47.1,23.5,48.1,24.1,48,25.3z"/>
	<path class="st0" d="M37.1,35.3c-1.5,0.2-2.1-0.8-2.1-2.3c0-1.5,0.5-2.4,2.2-2.4c1.5,0,2.4,0.7,2.5,2.2
		C39.8,34.4,38.9,35.3,37.1,35.3z"/>
	<path class="st0" d="M35,25.4c-0.2-1.6,1.2-2,2.4-2.1c1.3-0.1,2.4,1.3,2.3,2.7c-0.1,1.4-0.9,2.3-2.4,2.3
		C35.7,28.2,34.9,27.3,35,25.4z"/>
</g>
</svg>
