<?xml version="1.0" encoding="utf-8"?>
<!-- Generator: Adobe Illustrator 24.0.0, SVG Export Plug-In . SVG Version: 6.00 Build 0)  -->
<svg version="1.1" id="Слой_1" xmlns="http://www.w3.org/2000/svg" xmlns:xlink="http://www.w3.org/1999/xlink" x="0px" y="0px"
	 width="180px" height="40px" viewBox="0 0 180 40" style="enable-background:new 0 0 180 40;" xml:space="preserve">
<style type="text/css">
	.st0{fill:#B5C0C9;}
	.st1{fill:#676B6D;}
	.st2{fill:#4D5254;}
	.st3{fill:#363B3D;}
</style>
<g>
	<g>
		<g>
			<g>
				<path class="st0" d="M140.3,38.9h-31.6V26.1c0-2,0.6-3.7,1.8-5c1.2-1.3,2.8-2.1,4.9-2.3l12.9-1.4c1.5-0.2,2.6-0.4,3.1-0.8
					c0.6-0.4,0.8-1,0.8-1.8v-1.9c0-0.8-0.3-1.4-0.9-1.8c-0.6-0.4-1.5-0.6-2.8-0.6h-7.1c-1.8,0-3.1,0.4-3.8,1.1
					c-0.7,0.7-1.1,2-1.1,3.7c0,0,0,0.1,0,0.2c0,0.1,0,0.2,0,0.2c0,0,0,0.1,0,0.1c0,0,0,0.1,0,0.1h-7.7v-2.6c0-4.2,0.8-7.1,2.3-8.7
					c1.5-1.6,4.4-2.4,8.6-2.4h11.1c3.3,0,5.7,0.7,7.2,2.1c1.5,1.4,2.2,3.6,2.2,6.6v6c0,2.3-0.6,4.2-1.7,5.7
					c-1.2,1.4-2.8,2.3-4.8,2.5l-14.6,1.6c-0.8,0.1-1.5,0.5-1.9,1.1s-0.6,1.5-0.6,2.7v0.2h23.9V38.9z"/>
				<path class="st0" d="M175.2,38.9h-7.7v-7.3h-20.9V18.4l19.1-15.8h9.5v20.7h4.2v8.3h-4.2V38.9z M167.5,23.2V11.4l-14.2,11.8
					H167.5z"/>
			</g>
		</g>
	</g>
	<path class="st1" d="M82.1,10.7v5.9c0,0.7,0.5,1.2,1.2,1.2h14.2c0.7,0,1.2,0.5,1.2,1.2v5.8c0,0.7-0.5,1.2-1.2,1.2H83.2
		c-0.7,0-1.2,0.5-1.2,1.2v10.5c0,0.7-0.5,1.2-1.2,1.2h-8.3c-0.7,0-1.2-0.5-1.2-1.2v-11c0-0.2-0.1-0.5-0.2-0.7L66,18.2
		c-0.3-0.4-0.3-0.9,0-1.3l5.2-7.7c0.1-0.2,0.2-0.4,0.2-0.7v-6c0-0.7,0.5-1.2,1.2-1.2h27.1c0.7,0,1.2,0.5,1.2,1.2v5.8
		c0,0.7-0.5,1.2-1.2,1.2H83.2C82.6,9.6,82.1,10.1,82.1,10.7z"/>
	<path class="st1" d="M61.5,25.7c0-0.2-0.1-0.5-0.2-0.7l-4.2-6.9c-0.3-0.4-0.3-0.9,0-1.3l4.2-6.7c0.1-0.2,0.2-0.4,0.2-0.7V2.3
		c0-0.5-0.4-1-1-1h-5.1c-0.7,0-1.2,0.5-1.2,1.2v6c0,0.2-0.1,0.5-0.2,0.7L49.4,16c-0.6,0.9-0.6,2.2,0,3.1l4.6,7
		c0.1,0.2,0.2,0.4,0.2,0.7v11c0,0.7,0.5,1.2,1.2,1.2h5.1c0.5,0,1-0.4,1-1V25.7z"/>
	<path class="st2" d="M46.6,25.7c0-0.2-0.1-0.5-0.2-0.7l-4.2-6.9c-0.3-0.4-0.3-0.9,0-1.3l4.2-6.7c0.1-0.2,0.2-0.4,0.2-0.7V2.3
		c0-0.5-0.4-1-1-1h-4.1c-0.7,0-1.2,0.5-1.2,1.2v6c0,0.2-0.1,0.5-0.2,0.7L35.5,16c-0.6,0.9-0.6,2.2,0,3.1l4.6,7
		c0.1,0.2,0.2,0.4,0.2,0.7v11c0,0.7,0.5,1.2,1.2,1.2h4.1c0.5,0,1-0.4,1-1V25.7z"/>
	<g>
		<path class="st3" d="M32.7,25.7c0-0.2-0.1-0.5-0.2-0.7l-4.2-6.9c-0.3-0.4-0.3-0.9,0-1.3l4.2-6.7c0.1-0.2,0.2-0.4,0.2-0.7V2.3
			c0-0.5-0.4-1-1-1h-2.6c-0.7,0-1.2,0.5-1.2,1.2v6c0,0.2-0.1,0.5-0.2,0.7L23.1,16c-0.6,0.9-0.6,2.2,0,3.1l4.6,7
			c0.1,0.2,0.2,0.4,0.2,0.7v11c0,0.7,0.5,1.2,1.2,1.2h2.6c0.5,0,1-0.4,1-1V25.7z"/>
		<path class="st3" d="M20.3,25.7c0-0.2-0.1-0.5-0.2-0.7l-4.2-6.9c-0.3-0.4-0.3-0.9,0-1.3l4.2-6.7c0.1-0.2,0.2-0.4,0.2-0.7V2.3
			c0-0.5-0.4-1-1-1h-1.7c-0.7,0-1.1,0.5-1.1,1.2v6c0,0.2-0.1,0.5-0.2,0.7L11.7,16c-0.6,0.9-0.6,2.2,0,3.1l4.6,7
			c0.1,0.2,0.2,0.4,0.2,0.7v11c0,0.7,0.4,1.2,1.1,1.2h1.6c0.5,0,1-0.4,1-1V25.7z"/>
		<path class="st3" d="M8.9,25.7c0-0.2-0.1-0.5-0.2-0.7l-4.2-6.9c-0.3-0.4-0.3-0.9,0-1.3l4.2-6.7C8.8,10,8.9,9.8,8.9,9.5V2.3
			c0-0.5-0.4-1-1-1H7.5c-0.7,0-1.1,0.5-1.1,1.2v6c0,0.2-0.1,0.5-0.2,0.7L1.6,16c-0.6,0.9-0.6,2.2,0,3.1l4.6,7
			c0.1,0.2,0.2,0.4,0.2,0.7v11c0,0.7,0.3,1.2,1,1.2h0.5c0.5,0,1-0.4,1-1V25.7z"/>
	</g>
</g>
</svg>
