<?xml version="1.0" encoding="utf-8"?>
<!-- Generator: Adobe Illustrator 24.0.0, SVG Export Plug-In . SVG Version: 6.00 Build 0)  -->
<svg version="1.1" id="Слой_1" xmlns="http://www.w3.org/2000/svg" xmlns:xlink="http://www.w3.org/1999/xlink" x="0px" y="0px"
	 width="18px" height="27px" viewBox="0 0 18 27" style="enable-background:new 0 0 18 27;" xml:space="preserve">
<style type="text/css">
	.st0{fill-rule:evenodd;clip-rule:evenodd;fill:#2D825C;}
</style>
<g>
	<path class="st0" d="M4.1,20.8c0,1.2,0.3,2.4,1.1,3.3c0.1,0.1,0.2,0.2,0.3,0.3c0.8,0.8,1.9,1.4,3.2,1.7c1.4,0.3,3.1,0.3,4.5,0.1
		c1-0.2,2.9-0.7,3.6-1.2l0-3.9c-0.4,0.1-2,1.4-4.3,1.2c-1.8-0.2-2.4-1.4-2.5-3C10,18.6,10,11.5,10,11.4l6,0l0-3.9l-6,0l0-6.4l-2.9,0
		C6.6,1.1,6.4,1,6.3,1.3c-0.2,1.2-0.3,2-0.9,3C4.6,5.9,3.1,7.4,1.3,7.8v3.6l2.8,0L4.1,20.8z"/>
</g>
</svg>
