<?xml version="1.0" encoding="utf-8"?>
<!-- Generator: Adobe Illustrator 24.0.0, SVG Export Plug-In . SVG Version: 6.00 Build 0)  -->
<svg version="1.1" id="Слой_1" xmlns="http://www.w3.org/2000/svg" xmlns:xlink="http://www.w3.org/1999/xlink" x="0px" y="0px"
	 width="72px" height="72px" viewBox="0 0 72 72" style="enable-background:new 0 0 72 72;" xml:space="preserve">
<style type="text/css">
	.st0{fill:#006F3E;}
</style>
<g>
	<path class="st0" d="M71.2,35.2l-0.1,4.1c-1,9.7-5.1,17.8-12.6,24c-6.9,5.8-15.1,8.5-24.1,8.2c-4.2-0.1-8.3-1.1-12.2-2.8
		C18.4,67,15,64.7,12,61.9c-3.1-2.9-5.5-6.2-7.4-9.9c-2-3.7-2.8-7.8-3.7-11.8c0.2-2-0.3-4,0-6C1.1,32.1,1.3,30,1.8,28
		c0.5-2,1.1-3.9,1.9-5.8c0.8-1.9,1.7-3.7,2.9-5.3c1.1-1.6,2.4-3.2,3.7-4.7c1.3-1.6,2.9-2.8,4.5-4.1c1.6-1.2,3.3-2.3,5.1-3.2
		c1.8-0.9,3.7-1.6,5.6-2.3c2-0.6,4-1.1,6-1.3C41.8,0.2,51,2.8,58.9,9.5C66.7,16.2,70.7,24.8,71.2,35.2z M34.5,4.1
		c-2.9-0.1-7.2,0.9-11.3,2.6c-4.1,1.7-7.6,4.3-10.6,7.5c-3,3.2-5.2,6.8-6.8,11C4.2,29.3,3.6,33.6,3.9,38c0.6,9.8,4.8,17.7,12.5,23.7
		c6.5,5.1,14,7.2,22.1,6.6c8.3-0.6,15.4-4.1,21-10.2c5.7-6.2,8.6-13.5,8.6-21.9c0-8.9-3.2-16.5-9.4-22.7C52.5,7.2,44.9,4.1,34.5,4.1
		z"/>
	<path class="st0" d="M36,48c-0.5,0-1,0-1.5,0c-0.3,0-0.5-0.2-0.5-0.5c-0.1-1.2-0.3-2.5-0.4-3.7c-0.1-1.2-0.2-2.4-0.3-3.6
		c-0.1-1.2-0.3-2.4-0.5-3.6c-0.1-0.4-0.1-0.8-0.1-1.3c-0.1-1.1-0.2-2.3-0.3-3.4c-0.1-0.7-0.2-1.4-0.2-2.1c0-0.1-0.1-0.2-0.1-0.3
		c-0.1-1.2-0.2-2.5-0.3-3.7c-0.1-1-0.2-1.9-0.3-2.9c-0.1-1-0.2-2-0.3-2.9c-0.1-0.8-0.2-1.5-0.2-2.3c0.1-1.6,0.7-3,1.9-4.2
		c1.2-1.1,2.6-1.4,4.1-1.2c1.2,0.2,2.2,0.8,2.9,1.9c0.6,0.8,0.8,1.7,1,2.6c0.3,1.1,0.1,2.2,0.1,3.4c0,0.9-0.2,1.9-0.3,2.8
		c-0.1,0.9-0.2,1.9-0.3,2.8c-0.1,0.9-0.2,1.9-0.3,2.8c-0.1,0.9-0.2,1.8-0.3,2.7c-0.1,0.9-0.1,1.9-0.3,2.8c-0.3,1.5-0.2,3.1-0.4,4.6
		c0,0.3-0.2,0.5-0.2,0.8c-0.1,0.7-0.2,1.3-0.3,2c-0.1,0.8-0.1,1.5-0.2,2.3c-0.1,0.6-0.2,1.2-0.3,1.9c-0.1,0.6-0.1,1.2-0.1,1.8
		c0,0.4-0.2,0.6-0.6,0.6C36.9,48,36.5,48,36,48C36,48,36,48,36,48z"/>
	<path class="st0" d="M36,50.2c3,0,5,2.4,5,5c0,2.8-2,5-5,5c-2.7,0-5.1-1.9-5-5.3C31,52.6,33.1,50.2,36,50.2z"/>
</g>
</svg>
