<svg xmlns="http://www.w3.org/2000/svg" width="70" height="69" viewBox="0 0 70 69"><defs><clipPath id="ctkua"><path fill="#fff" d="M35.5 0C54.554 0 70 15.446 70 34.5 70 53.553 54.554 69 35.5 69 16.446 69 1 53.553 1 34.5 1 15.446 16.446 0 35.5 0z"/></clipPath></defs><g><g><path fill="#1c8a59" d="M35.5 0C54.554 0 70 15.446 70 34.5 70 53.553 54.554 69 35.5 69 16.446 69 1 53.553 1 34.5 1 15.446 16.446 0 35.5 0z"/><path fill="none" stroke="#fff" stroke-miterlimit="20" stroke-width="2" d="M35.5 0C54.554 0 70 15.446 70 34.5 70 53.553 54.554 69 35.5 69 16.446 69 1 53.553 1 34.5 1 15.446 16.446 0 35.5 0z" clip-path="url(&quot;#ctkua&quot;)"/></g><g><path fill="#fff" d="M46.914 34.052L27.781 47.608V20.497z"/><path fill="#1c8a59" d="M46.914 34.052L27.781 47.608V20.497z"/></g></g></svg>