<?xml version="1.0" encoding="utf-8"?>
<!-- Generator: Adobe Illustrator 24.0.0, SVG Export Plug-In . SVG Version: 6.00 Build 0)  -->
<svg version="1.1" id="Слой_1" xmlns="http://www.w3.org/2000/svg" xmlns:xlink="http://www.w3.org/1999/xlink" x="0px" y="0px"
	 width="31px" height="20px" viewBox="0 0 31 20" style="enable-background:new 0 0 31 20;" xml:space="preserve">
<style type="text/css">
	.st0{fill:#0B2842;}
</style>
<g>
	<polygon class="st0" points="28.3,0.9 28.1,0.8 2.7,0.8 2.6,0.9 15.4,12.3 	"/>
	<path class="st0" d="M29.8,2l-9.1,8.1l9,7.9c0.1-0.3,0.2-0.5,0.2-0.9V2.6C29.9,2.4,29.8,2.2,29.8,2z"/>
	<path class="st0" d="M1.1,1.9C1,2.2,0.9,2.4,0.9,2.6v14.5c0,0.3,0.1,0.5,0.2,0.7l9.1-7.8L1.1,1.9z"/>
	<polygon class="st0" points="15.4,14.7 11.5,11.3 2.6,18.9 2.7,18.9 28,18.9 19.3,11.3 	"/>
</g>
</svg>
