<?xml version="1.0" encoding="utf-8"?>
<!-- Generator: Adobe Illustrator 24.0.0, SVG Export Plug-In . SVG Version: 6.00 Build 0)  -->
<svg version="1.1" id="Слой_1" xmlns="http://www.w3.org/2000/svg" xmlns:xlink="http://www.w3.org/1999/xlink" x="0px" y="0px"
	 width="28px" height="35px" viewBox="0 0 28 35" style="enable-background:new 0 0 28 35;" xml:space="preserve">
<style type="text/css">
	.st0{fill:#0B2842;}
</style>
<path class="st0" d="M26.7,27.9l-0.1-0.4c-0.3-1.2-6-3.7-6.5-3.8l-0.4,0c-0.8,0.1-1.8,0.7-3.9,2.1c-2-1.2-4.5-4.2-5.7-5.9
	c-1.3-1.8-2.7-4.9-3.1-7c2.4-1.6,3.4-2.3,3.5-3.2c0.1-0.5-0.1-6.7-1.1-7.4L9.1,2C8.5,1.5,7.5,0.7,6.4,0.8C6.1,0.8,5.8,0.9,5.5,1
	c-0.8,0.4-2.9,1.4-3.9,3c-0.7,1-2.1,10.6,4,19.7c6.1,9,14.9,10.5,16.3,10.4l0,0l0.1,0c1.9-0.4,3.6-1.9,4.3-2.6
	C27.5,30.4,27,28.8,26.7,27.9z"/>
</svg>
